<svg id="Real" xmlns="http://www.w3.org/2000/svg" viewBox="0 0 289.62 132.2"><defs><style>.cls-1{fill:#74be45;}.cls-2{fill:#fab01a;}.cls-3{fill:#fee600;}.cls-4{fill:#23aae2;}.cls-5{fill:#fecf0a;}.cls-6{fill:#c3d830;}.cls-7{fill:#0886c8;}.cls-8{fill:#636466;}.cls-9{fill:#939598;}</style></defs><polygon class="cls-1" points="73.18 30.31 78.38 42.87 90.94 48.07 103.5 17.76 73.18 30.31"/><polygon class="cls-2" points="17.76 17.76 30.31 48.07 42.87 42.87 48.07 30.31 17.76 17.76"/><polygon class="cls-3" points="103.5 53.27 90.94 48.07 85.74 60.63 90.94 73.18 103.5 67.98 121.25 60.63 103.5 53.27"/><polygon class="cls-4" points="96.14 85.74 90.94 73.18 85.74 60.63 78.38 78.38 73.18 90.94 85.74 96.14 103.5 103.5 96.14 85.74"/><polygon class="cls-3" points="30.31 48.07 17.76 53.27 0 60.63 17.76 67.98 30.31 73.18 35.51 60.63 30.31 48.07"/><polygon class="cls-5" points="30.31 48.07 35.51 60.63 42.87 42.87 30.31 48.07"/><polygon class="cls-6" points="78.38 42.87 85.74 60.63 90.94 48.07 78.38 42.87"/><polygon class="cls-4" points="42.87 78.38 35.51 60.63 30.31 73.18 25.11 85.74 17.76 103.5 35.51 96.14 48.07 90.94 42.87 78.38"/><polygon class="cls-7" points="48.07 90.94 60.63 60.63 73.18 90.94 78.38 78.38 85.74 60.63 78.38 42.87 73.18 30.31 60.63 0 48.07 30.31 42.87 42.87 35.51 60.63 42.87 78.38 48.07 90.94"/><path class="cls-8" d="M164.67,30.79,180.09,72h-9.41l-3.12-9.18H152.14L148.9,72h-9.12l15.59-41.24Zm.52,25.3L160,41h-.11l-5.37,15.13Z" transform="translate(-12.38 -17.35)"/><path class="cls-8" d="M190,30.79V72h-8.2V30.79Z" transform="translate(-12.38 -17.35)"/><path class="cls-8" d="M203.16,30.79V72H195V30.79Z" transform="translate(-12.38 -17.35)"/><path class="cls-8" d="M208.1,37.55V30.79h8.2v6.76Zm8.2,4.62V72h-8.2V42.17Z" transform="translate(-12.38 -17.35)"/><path class="cls-8" d="M220.84,51.35a9.54,9.54,0,0,1,1.45-4.79,9.74,9.74,0,0,1,3.23-3.06,14.15,14.15,0,0,1,4.42-1.65,25.62,25.62,0,0,1,4.94-.49,33.74,33.74,0,0,1,4.56.32,14.19,14.19,0,0,1,4.22,1.24,8.32,8.32,0,0,1,3.11,2.57A7.18,7.18,0,0,1,248,49.85V65.39a30,30,0,0,0,.23,3.87A6.82,6.82,0,0,0,249,72h-8.32a13.3,13.3,0,0,1-.38-1.41,14.24,14.24,0,0,1-.2-1.48A10.68,10.68,0,0,1,235.51,72a18.51,18.51,0,0,1-5.43.81,14.51,14.51,0,0,1-4-.52,9.13,9.13,0,0,1-3.24-1.61,7.63,7.63,0,0,1-2.16-2.78,9.33,9.33,0,0,1-.78-4,8.79,8.79,0,0,1,.89-4.19,7.58,7.58,0,0,1,2.31-2.63,10.54,10.54,0,0,1,3.24-1.47,33.11,33.11,0,0,1,3.66-.78c1.24-.19,2.45-.35,3.64-.46a22.46,22.46,0,0,0,3.18-.52,5.57,5.57,0,0,0,2.19-1,2.25,2.25,0,0,0,.76-1.94,4.36,4.36,0,0,0-.44-2.11,3.26,3.26,0,0,0-1.15-1.21,4.64,4.64,0,0,0-1.68-.58,14.57,14.57,0,0,0-2.05-.14,6.23,6.23,0,0,0-3.81,1A4.67,4.67,0,0,0,229,51.35Zm18.95,6.07a3.63,3.63,0,0,1-1.3.72,12.86,12.86,0,0,1-1.68.43c-.6.12-1.22.22-1.88.29s-1.31.18-2,.29a16.16,16.16,0,0,0-1.82.46,5.69,5.69,0,0,0-1.56.78,3.81,3.81,0,0,0-1.07,1.25,4,4,0,0,0-.4,1.9,3.86,3.86,0,0,0,.4,1.85,3.13,3.13,0,0,0,1.1,1.18,4.67,4.67,0,0,0,1.62.61,9.88,9.88,0,0,0,1.9.17,7.27,7.27,0,0,0,3.76-.81,5.34,5.34,0,0,0,2-1.93,6.31,6.31,0,0,0,.78-2.28,15.15,15.15,0,0,0,.15-1.85Z" transform="translate(-12.38 -17.35)"/><path class="cls-8" d="M260.61,42.17v4.16h.17a9.45,9.45,0,0,1,4-3.78,11.7,11.7,0,0,1,5.08-1.19,13.83,13.83,0,0,1,5.4.9,8,8,0,0,1,3.33,2.48,9.78,9.78,0,0,1,1.7,3.87,23.9,23.9,0,0,1,.49,5V72h-8.2V55.17a10.46,10.46,0,0,0-1.16-5.52c-.77-1.21-2.13-1.82-4.1-1.82-2.23,0-3.85.67-4.85,2s-1.5,3.52-1.5,6.56V72h-8.2V42.17Z" transform="translate(-12.38 -17.35)"/><path class="cls-8" d="M301.67,42.17v5.49h-6V62.44a4,4,0,0,0,.7,2.78,4,4,0,0,0,2.77.69c.46,0,.9,0,1.33-.06a11.37,11.37,0,0,0,1.21-.17V72a18.79,18.79,0,0,1-2.31.23c-.85,0-1.68.06-2.48.06a24.23,24.23,0,0,1-3.61-.26,8.49,8.49,0,0,1-3-1,5.35,5.35,0,0,1-2.05-2.14,7.61,7.61,0,0,1-.75-3.64V47.66h-5V42.17h5v-9h8.2v9Z" transform="translate(-12.38 -17.35)"/><path class="cls-8" d="M166.4,79.59v3.8H145.55V94.2H165V98H145.55v11.76h21v3.8h-26v-34Z" transform="translate(-12.38 -17.35)"/><path class="cls-8" d="M176,89v3.9h.11q2.78-4.47,8.8-4.48a12.74,12.74,0,0,1,4.46.67,7.26,7.26,0,0,1,2.88,1.86,6.69,6.69,0,0,1,1.55,2.83,14.18,14.18,0,0,1,.44,3.64v16.18h-4.45V96.91a4.62,4.62,0,0,0-1.47-3.61,5.78,5.78,0,0,0-4-1.34,9.86,9.86,0,0,0-3.53.57,6.63,6.63,0,0,0-4,4.07,9.19,9.19,0,0,0-.49,3.07v13.9h-4.46V89Z" transform="translate(-12.38 -17.35)"/><path class="cls-8" d="M220.17,112a13.17,13.17,0,0,1-7.65,2.1,15.27,15.27,0,0,1-5.64-.95,11.28,11.28,0,0,1-4-2.67,11.08,11.08,0,0,1-2.43-4.09,18.18,18.18,0,0,1-.92-5.19,13.75,13.75,0,0,1,.94-5.14,12,12,0,0,1,2.65-4,12.23,12.23,0,0,1,4-2.67,13.51,13.51,0,0,1,5.11-1,12,12,0,0,1,6,1.36,11.37,11.37,0,0,1,3.82,3.45,13,13,0,0,1,2,4.57,17.71,17.71,0,0,1,.45,4.71H204.24a8.65,8.65,0,0,0,.42,3.07,6.76,6.76,0,0,0,1.52,2.58,7.44,7.44,0,0,0,2.67,1.78,9.92,9.92,0,0,0,3.82.67,8.3,8.3,0,0,0,4.64-1.19,5.73,5.73,0,0,0,2.39-3.62h4.4A9.71,9.71,0,0,1,220.17,112Zm-1.08-15.8A6.87,6.87,0,0,0,217.47,94a7.93,7.93,0,0,0-2.41-1.48A8.43,8.43,0,0,0,212,92a8.58,8.58,0,0,0-3.12.55,7.42,7.42,0,0,0-2.38,1.5,7.18,7.18,0,0,0-1.57,2.21,7.73,7.73,0,0,0-.68,2.69H219.8A7.5,7.5,0,0,0,219.09,96.2Z" transform="translate(-12.38 -17.35)"/><path class="cls-8" d="M233.16,89v5.18h.11a11.22,11.22,0,0,1,4-4.42,10.75,10.75,0,0,1,6-1.34v4.29a13.9,13.9,0,0,0-4.56.66,7.22,7.22,0,0,0-3,2A7.73,7.73,0,0,0,234,98.41a15.4,15.4,0,0,0-.53,4.22v10.94H229V89Z" transform="translate(-12.38 -17.35)"/><path class="cls-8" d="M265.44,120.52q-3,3-9.53,3a19.8,19.8,0,0,1-3.86-.38,12.48,12.48,0,0,1-3.56-1.23,8,8,0,0,1-2.65-2.24,6,6,0,0,1-1.15-3.38h4.46a2.83,2.83,0,0,0,.75,1.86,5.77,5.77,0,0,0,1.73,1.23,8.92,8.92,0,0,0,2.23.69,12.52,12.52,0,0,0,2.31.22,9,9,0,0,0,3.72-.69,6.85,6.85,0,0,0,2.51-1.91,7.34,7.34,0,0,0,1.44-2.92,14.87,14.87,0,0,0,.45-3.77v-1.61h-.11a7.09,7.09,0,0,1-3.48,3.35,11.63,11.63,0,0,1-4.95,1.07,12.87,12.87,0,0,1-5.29-1,10.88,10.88,0,0,1-3.78-2.69,11.16,11.16,0,0,1-2.28-4,15.05,15.05,0,0,1-.76-4.78,17.07,17.07,0,0,1,.63-4.5,11.81,11.81,0,0,1,2.1-4.19,11.17,11.17,0,0,1,3.88-3.09,13,13,0,0,1,5.92-1.22,10.69,10.69,0,0,1,4.71,1,7.57,7.57,0,0,1,3.36,3.07h.05V89h4.19v22.51Q268.48,117.53,265.44,120.52Zm-5.68-11.06a7.15,7.15,0,0,0,2.49-2.19,9.63,9.63,0,0,0,1.38-3.07,13.52,13.52,0,0,0,.45-3.43,12.31,12.31,0,0,0-.42-3.19,8.3,8.3,0,0,0-1.34-2.83,6.73,6.73,0,0,0-2.38-2,7.77,7.77,0,0,0-3.56-.76,8.34,8.34,0,0,0-3.67.74,6.89,6.89,0,0,0-2.49,2,7.78,7.78,0,0,0-1.41,2.85,12.59,12.59,0,0,0-.45,3.38,15.11,15.11,0,0,0,.37,3.33,9,9,0,0,0,1.25,3,6.9,6.9,0,0,0,2.36,2.19,7.41,7.41,0,0,0,3.67.83A7.87,7.87,0,0,0,259.76,109.46Z" transform="translate(-12.38 -17.35)"/><path class="cls-8" d="M285.83,116.86a25.93,25.93,0,0,1-1.55,3,8.36,8.36,0,0,1-1.68,2,5.88,5.88,0,0,1-2,1.14,8.53,8.53,0,0,1-2.59.36,12,12,0,0,1-1.58-.1,7.77,7.77,0,0,1-1.52-.33v-3.71a7.92,7.92,0,0,0,1.34.4,6.35,6.35,0,0,0,1.29.17,4.06,4.06,0,0,0,2.27-.6,3.59,3.59,0,0,0,1.39-1.69l1.84-4.14L272.25,89h5l7.91,20.13h.1L292.9,89h4.72Z" transform="translate(-12.38 -17.35)"/><path class="cls-9" d="M147,134.59a3.77,3.77,0,0,1,2.59.79,3,3,0,0,1,.9,2.4,3.82,3.82,0,0,1-.21,1.18,3.23,3.23,0,0,1-.74,1.19,3.82,3.82,0,0,1-1.38.91,5.49,5.49,0,0,1-2.17.37h-3.49l-1,4.73h-1.57l2.46-11.57Zm-.68,5.54a2.68,2.68,0,0,0,1.95-.65,2.31,2.31,0,0,0,.66-1.7,2.34,2.34,0,0,0-.16-.9,1.41,1.41,0,0,0-.42-.58,1.7,1.7,0,0,0-.61-.32,2.94,2.94,0,0,0-.74-.1h-3.31l-.91,4.25Z" transform="translate(-12.38 -17.35)"/><path class="cls-9" d="M153,140.88a5.08,5.08,0,0,1,.94-1.69,4.68,4.68,0,0,1,1.5-1.17,4.45,4.45,0,0,1,2-.43,3.65,3.65,0,0,1,2.64.88,3.47,3.47,0,0,1,.9,2.59,6.2,6.2,0,0,1-.31,2,5.27,5.27,0,0,1-.92,1.7,4.74,4.74,0,0,1-1.48,1.18,4.45,4.45,0,0,1-2,.43,4,4,0,0,1-1.51-.26,3.09,3.09,0,0,1-1.12-.72,3,3,0,0,1-.71-1.1,3.78,3.78,0,0,1-.25-1.4A6.32,6.32,0,0,1,153,140.88Zm1.67,3.63a2.3,2.3,0,0,0,1.75.63,2.39,2.39,0,0,0,1.36-.39,3.55,3.55,0,0,0,1-1,4.76,4.76,0,0,0,.81-2.6,3.1,3.1,0,0,0-.13-.92,1.92,1.92,0,0,0-.41-.76,2,2,0,0,0-.7-.5,2.35,2.35,0,0,0-1-.19,2.53,2.53,0,0,0-1.41.39,3.7,3.7,0,0,0-1,1,4.36,4.36,0,0,0-.61,1.31,4.79,4.79,0,0,0-.21,1.36A2.36,2.36,0,0,0,154.64,144.51Z" transform="translate(-12.38 -17.35)"/><path class="cls-9" d="M170.41,146.16l-.43-6.51h0l-3,6.51h-1.48l-1-8.38h1.49l.53,6.67h0l3.06-6.67h1.59l.41,6.67h0l3.23-6.67h1.52l-4.4,8.38Z" transform="translate(-12.38 -17.35)"/><path class="cls-9" d="M179.72,143.12a2,2,0,0,0,.19.86,1.74,1.74,0,0,0,.49.64,2.55,2.55,0,0,0,.71.38,2.28,2.28,0,0,0,.82.14,2.73,2.73,0,0,0,1.55-.41,2.45,2.45,0,0,0,.91-1.19h1.4a3.64,3.64,0,0,1-.53,1.22,3.31,3.31,0,0,1-.87.88,3.7,3.7,0,0,1-1.14.52,4.78,4.78,0,0,1-1.32.18,4.25,4.25,0,0,1-1.75-.31,3,3,0,0,1-1.11-.81,2.88,2.88,0,0,1-.58-1.09,4.32,4.32,0,0,1-.17-1.14,6.43,6.43,0,0,1,.36-2.2,5.23,5.23,0,0,1,.95-1.71A4.13,4.13,0,0,1,181,138a3.76,3.76,0,0,1,1.67-.39,3.47,3.47,0,0,1,2.74,1,4,4,0,0,1,.87,2.74,4.1,4.1,0,0,1,0,.62c0,.19-.06.35-.09.47h-6.41A5.71,5.71,0,0,0,179.72,143.12Zm5.14-2.82a2,2,0,0,0-.33-.76,1.68,1.68,0,0,0-.64-.53,2,2,0,0,0-1-.21,2.9,2.9,0,0,0-1.09.19,2.5,2.5,0,0,0-.85.51,3.14,3.14,0,0,0-.61.75,4.42,4.42,0,0,0-.4.92h4.95A3.19,3.19,0,0,0,184.86,140.3Z" transform="translate(-12.38 -17.35)"/><path class="cls-9" d="M191.94,137.78l-.42,1.8h0a4.69,4.69,0,0,1,1.26-1.43,3,3,0,0,1,1.84-.56l.24,0a.54.54,0,0,1,.25,0l-.33,1.47H194a1.94,1.94,0,0,0-.41.08,2.54,2.54,0,0,0-1,.5,3.6,3.6,0,0,0-1.23,1.81,10.07,10.07,0,0,0-.26,1l-.81,3.71h-1.39l1.77-8.38Z" transform="translate(-12.38 -17.35)"/><path class="cls-9" d="M199.42,137.78l-1.78,8.38h-1.39l1.77-8.38Zm-1.09-1.51.36-1.68h1.42l-.36,1.68Z" transform="translate(-12.38 -17.35)"/><path class="cls-9" d="M205,137.78l-.27,1.27h0a3.32,3.32,0,0,1,1.34-1.1,4.12,4.12,0,0,1,1.7-.36,2.69,2.69,0,0,1,1.79.51,2.1,2.1,0,0,1,.58,1.64,4.4,4.4,0,0,1-.07.72,8.74,8.74,0,0,1-.18.92l-1,4.78h-1.4l1.09-4.89c0-.09,0-.19.05-.3s0-.24.07-.36,0-.24,0-.36a1.58,1.58,0,0,0,0-.28,1,1,0,0,0-.43-.88,1.85,1.85,0,0,0-1.05-.29,2.53,2.53,0,0,0-1.15.28,3,3,0,0,0-1,.7,2.21,2.21,0,0,0-.6.78,5.3,5.3,0,0,0-.34,1l-1,4.63h-1.39l1.78-8.38Z" transform="translate(-12.38 -17.35)"/><path class="cls-9" d="M220.22,146.19a9.44,9.44,0,0,1-.35,1,3.57,3.57,0,0,1-1.52,1.8,4.75,4.75,0,0,1-2.35.53,5.18,5.18,0,0,1-1.26-.14,3.24,3.24,0,0,1-1.07-.46,2.51,2.51,0,0,1-.75-.8,2.47,2.47,0,0,1-.3-1.19H214a1.32,1.32,0,0,0,.23.69,1.27,1.27,0,0,0,.47.42,2.29,2.29,0,0,0,.67.21,4.93,4.93,0,0,0,.78.06,2.72,2.72,0,0,0,1.32-.29,2.52,2.52,0,0,0,.85-.77,3.87,3.87,0,0,0,.52-1.08c.13-.4.24-.81.35-1.22l0,0a2.61,2.61,0,0,1-1.15,1,3.72,3.72,0,0,1-1.5.29,3.52,3.52,0,0,1-1.39-.25,2.53,2.53,0,0,1-1-.71,2.93,2.93,0,0,1-.6-1.1,4.36,4.36,0,0,1-.21-1.39,5.7,5.7,0,0,1,.31-1.85,5.37,5.37,0,0,1,.87-1.66,4.59,4.59,0,0,1,1.39-1.2,3.72,3.72,0,0,1,1.86-.46,3.46,3.46,0,0,1,.92.12,3.23,3.23,0,0,1,.81.34,2.27,2.27,0,0,1,.62.53,1.91,1.91,0,0,1,.36.71v0h0l.26-1.54h1.32L220.53,145C220.43,145.38,220.33,145.79,220.22,146.19Zm-5.38-2.57a2.13,2.13,0,0,0,.39.71,1.92,1.92,0,0,0,.65.5,2.22,2.22,0,0,0,.92.18,2.43,2.43,0,0,0,1.38-.39,3.39,3.39,0,0,0,1-1,4.45,4.45,0,0,0,.56-1.3,5,5,0,0,0,.19-1.34,2.33,2.33,0,0,0-.53-1.59,2.1,2.1,0,0,0-1.64-.6,2.14,2.14,0,0,0-1.3.41,3.45,3.45,0,0,0-.94,1,4.5,4.5,0,0,0-.58,1.28,4.7,4.7,0,0,0-.2,1.27A3,3,0,0,0,214.84,143.62Z" transform="translate(-12.38 -17.35)"/><path class="cls-9" d="M238.13,134.59a3.54,3.54,0,0,1,2.5.73,2.64,2.64,0,0,1,.78,2,3,3,0,0,1-.6,1.79,2.88,2.88,0,0,1-.7.65,2.47,2.47,0,0,1-.94.35v0a2.39,2.39,0,0,1,1.28.85,2.47,2.47,0,0,1,.48,1.55,3.43,3.43,0,0,1-.32,1.49,3.17,3.17,0,0,1-.89,1.13,4,4,0,0,1-1.33.71,5.06,5.06,0,0,1-1.63.25h-5.82l2.46-11.57Zm-1.62,10.28a6.56,6.56,0,0,0,.78-.06,2.76,2.76,0,0,0,.94-.29,2.38,2.38,0,0,0,.8-.69,2.09,2.09,0,0,0,.34-1.25,1.78,1.78,0,0,0-.2-.89,1.29,1.29,0,0,0-.54-.52,2.25,2.25,0,0,0-.77-.24,5.45,5.45,0,0,0-.92-.07h-3.36l-.86,4Zm.83-5.31c1.67,0,2.5-.73,2.5-2.2a1.28,1.28,0,0,0-.22-.81,1.37,1.37,0,0,0-.57-.44,2.58,2.58,0,0,0-.75-.19c-.27,0-.52,0-.76,0h-2.9l-.79,3.68Z" transform="translate(-12.38 -17.35)"/><path class="cls-9" d="M245.59,143.12a1.84,1.84,0,0,0,.19.86,1.74,1.74,0,0,0,.49.64,2.42,2.42,0,0,0,.71.38,2.28,2.28,0,0,0,.82.14,2.75,2.75,0,0,0,1.55-.41,2.45,2.45,0,0,0,.91-1.19h1.4a3.64,3.64,0,0,1-.53,1.22,3.31,3.31,0,0,1-.87.88,3.7,3.7,0,0,1-1.14.52,4.78,4.78,0,0,1-1.32.18,4.25,4.25,0,0,1-1.75-.31,3,3,0,0,1-1.11-.81,2.88,2.88,0,0,1-.58-1.09,4.32,4.32,0,0,1-.17-1.14,6.43,6.43,0,0,1,.36-2.2,5.23,5.23,0,0,1,.95-1.71,4.09,4.09,0,0,1,1.4-1.1,3.8,3.8,0,0,1,1.68-.39,3.49,3.49,0,0,1,2.74,1,4,4,0,0,1,.87,2.74,4.1,4.1,0,0,1-.05.62c0,.19-.06.35-.09.47h-6.41A5.71,5.71,0,0,0,245.59,143.12Zm5.14-2.82a2,2,0,0,0-.33-.76,1.68,1.68,0,0,0-.64-.53,2,2,0,0,0-1-.21,2.9,2.9,0,0,0-1.09.19,2.5,2.5,0,0,0-.85.51,2.91,2.91,0,0,0-.61.75,4.42,4.42,0,0,0-.4.92h4.95A3.19,3.19,0,0,0,250.73,140.3Z" transform="translate(-12.38 -17.35)"/><path class="cls-9" d="M257,148.35a3.91,3.91,0,0,1-.58.63,2.3,2.3,0,0,1-.71.42,2.57,2.57,0,0,1-.92.15,2.32,2.32,0,0,1-.51-.05,1.77,1.77,0,0,1-.46-.16l.25-1.12a1.76,1.76,0,0,0,.39.17,1.68,1.68,0,0,0,.4.06,1.13,1.13,0,0,0,.77-.25,2.84,2.84,0,0,0,.55-.66l.85-1.38-1.5-8.38H257l1,6.67h0l3.58-6.67h1.53l-5.63,9.8Z" transform="translate(-12.38 -17.35)"/><path class="cls-9" d="M265.23,140.88a5.08,5.08,0,0,1,.94-1.69,4.68,4.68,0,0,1,1.5-1.17,4.45,4.45,0,0,1,2-.43,3.65,3.65,0,0,1,2.64.88,3.47,3.47,0,0,1,.9,2.59,6.2,6.2,0,0,1-.31,2,5.27,5.27,0,0,1-.92,1.7,4.74,4.74,0,0,1-1.48,1.18,4.45,4.45,0,0,1-2,.43,4,4,0,0,1-1.51-.26,3.09,3.09,0,0,1-1.12-.72,3,3,0,0,1-.71-1.1,3.78,3.78,0,0,1-.25-1.4A6.32,6.32,0,0,1,265.23,140.88Zm1.67,3.63a2.3,2.3,0,0,0,1.75.63,2.39,2.39,0,0,0,1.36-.39,3.55,3.55,0,0,0,1-1,4.76,4.76,0,0,0,.81-2.6,3.1,3.1,0,0,0-.13-.92,1.92,1.92,0,0,0-.41-.76,2,2,0,0,0-.7-.5,2.35,2.35,0,0,0-1-.19,2.59,2.59,0,0,0-1.42.39,3.8,3.8,0,0,0-1,1,4.36,4.36,0,0,0-.61,1.31,4.79,4.79,0,0,0-.21,1.36A2.36,2.36,0,0,0,266.9,144.51Z" transform="translate(-12.38 -17.35)"/><path class="cls-9" d="M279.06,137.78l-.26,1.27h0a3.32,3.32,0,0,1,1.34-1.1,4.12,4.12,0,0,1,1.7-.36,2.69,2.69,0,0,1,1.79.51,2.1,2.1,0,0,1,.58,1.64,4.4,4.4,0,0,1-.07.72,8.74,8.74,0,0,1-.18.92l-1,4.78h-1.4l1.09-4.89c0-.09,0-.19.05-.3s0-.24.07-.36,0-.24.05-.36a1.58,1.58,0,0,0,0-.28,1,1,0,0,0-.43-.88,1.85,1.85,0,0,0-1.05-.29,2.53,2.53,0,0,0-1.15.28,3,3,0,0,0-1,.7,2.21,2.21,0,0,0-.6.78,5.3,5.3,0,0,0-.34,1l-1,4.63h-1.39l1.78-8.38Z" transform="translate(-12.38 -17.35)"/><path class="cls-9" d="M293.25,146.16l.3-1.2h0a3.31,3.31,0,0,1-1.3,1.1,4.27,4.27,0,0,1-3,0,3.07,3.07,0,0,1-1.05-.7,2.69,2.69,0,0,1-.64-1.07,4.2,4.2,0,0,1-.22-1.4,5.71,5.71,0,0,1,.33-1.9,5.58,5.58,0,0,1,.92-1.72,4.83,4.83,0,0,1,1.48-1.24,4.25,4.25,0,0,1,2-.47,4.43,4.43,0,0,1,.81.07,3.22,3.22,0,0,1,.78.24,2.18,2.18,0,0,1,.65.46,1.71,1.71,0,0,1,.42.7h0l.91-4.47h1.38l-2.49,11.57Zm-4-1.62a2.12,2.12,0,0,0,1.68.6,2.52,2.52,0,0,0,1.41-.4,3.65,3.65,0,0,0,1.05-1,5,5,0,0,0,.64-1.36,4.71,4.71,0,0,0,.22-1.38,2.24,2.24,0,0,0-.55-1.56,2,2,0,0,0-1.59-.62,2.76,2.76,0,0,0-1.46.38,3.67,3.67,0,0,0-1.06,1,4.54,4.54,0,0,0-.64,1.33,5.24,5.24,0,0,0-.22,1.43A2.42,2.42,0,0,0,289.27,144.54Z" transform="translate(-12.38 -17.35)"/><path class="cls-8" d="M295,108.66a3.53,3.53,0,0,1,.79-1.14,3.65,3.65,0,0,1,1.16-.76,3.82,3.82,0,0,1,2.82,0,3.6,3.6,0,0,1,1.15.76,3.69,3.69,0,0,1,.79,1.14,3.53,3.53,0,0,1,.29,1.42,3.58,3.58,0,0,1-1.08,2.59,3.44,3.44,0,0,1-1.15.76,3.82,3.82,0,0,1-2.82,0,3.6,3.6,0,0,1-1.95-1.91,3.6,3.6,0,0,1-.29-1.44A3.53,3.53,0,0,1,295,108.66Zm.6,2.65a3,3,0,0,0,1.57,1.64,3.15,3.15,0,0,0,1.19.23,3.1,3.1,0,0,0,1.18-.23,3,3,0,0,0,.94-.66,2.85,2.85,0,0,0,.63-1,3.32,3.32,0,0,0,.23-1.23,3.26,3.26,0,0,0-.23-1.21,3,3,0,0,0-.63-1,2.86,2.86,0,0,0-2.12-.88,3.15,3.15,0,0,0-1.19.23,3,3,0,0,0-1.57,1.62,3.07,3.07,0,0,0-.23,1.21A3.13,3.13,0,0,0,295.6,111.31Zm3-3.33a1.72,1.72,0,0,1,1.12.3,1.09,1.09,0,0,1,.37.91,1,1,0,0,1-.32.84,1.47,1.47,0,0,1-.8.31l1.21,1.87h-.7l-1.16-1.82h-.69v1.82H297V108Zm-.29,1.88.43,0a1,1,0,0,0,.35-.08.51.51,0,0,0,.25-.21.7.7,0,0,0,.09-.39.68.68,0,0,0-.08-.34.67.67,0,0,0-.22-.19.82.82,0,0,0-.3-.09,1.84,1.84,0,0,0-.33,0h-.87v1.35Z" transform="translate(-12.38 -17.35)"/></svg>