<?xml version="1.0" encoding="utf-8"?>
<!-- Generator: Adobe Illustrator 27.1.1, SVG Export Plug-In . SVG Version: 6.00 Build 0)  -->
<svg version="1.1" id="uuid-cc924ace-a71c-4964-83e5-3af1f717f395"
	 xmlns="http://www.w3.org/2000/svg" xmlns:xlink="http://www.w3.org/1999/xlink" x="0px" y="0px" width="798px" height="124.7px"
	 viewBox="0 0 798 124.7" style="enable-background:new 0 0 798 124.7;" xml:space="preserve">
<style type="text/css">
	.st0{fill:#FFFFFF;}
	.st1{fill:#FF8200;}
</style>
<g>
	<path class="st0" d="M16.1,89.3c-5-2.7-8.9-6.4-11.8-11.2C1.4,73.4,0,68,0,62s1.4-11.4,4.3-16.2c2.9-4.8,6.8-8.5,11.8-11.2
		c5-2.7,10.6-4,16.8-4c5.2,0,10,0.9,14.2,2.8s7.8,4.5,10.7,8l-9,8.3c-4.1-4.7-9.2-7.1-15.2-7.1c-3.8,0-7.1,0.8-10,2.5
		s-5.2,3.9-6.9,6.9s-2.5,6.3-2.5,10c0,3.8,0.8,7.1,2.5,10s3.9,5.2,6.9,6.9s6.3,2.5,10,2.5c6.1,0,11.1-2.4,15.2-7.2l9,8.3
		c-2.9,3.5-6.5,6.2-10.7,8.1s-9,2.8-14.3,2.8C26.7,93.3,21.1,92,16.1,89.3L16.1,89.3z"/>
	<path class="st0" d="M72.8,89.9c-3.9-2.1-6.9-4.9-9.1-8.5c-2.2-3.6-3.3-7.8-3.3-12.4s1.1-8.8,3.3-12.4c2.2-3.6,5.2-6.5,9.1-8.5
		C76.7,46,81.1,45,86,45s9.3,1,13.2,3.1c3.9,2,6.9,4.9,9.1,8.5s3.3,7.8,3.3,12.4s-1.1,8.8-3.3,12.4c-2.2,3.6-5.2,6.5-9.1,8.5
		C95.3,92,90.9,93,86,93S76.7,92,72.8,89.9z M94.6,78.4c2.2-2.3,3.3-5.5,3.3-9.4s-1.1-7.1-3.3-9.4c-2.2-2.3-5.1-3.5-8.5-3.5
		s-6.3,1.2-8.6,3.5s-3.4,5.5-3.4,9.4s1.1,7.1,3.4,9.4c2.2,2.3,5.1,3.5,8.6,3.5S92.3,80.7,94.6,78.4z"/>
	<path class="st0" d="M201.2,45.7l-19.7,46.6h-13.9L148,45.7h14l12.9,31.7l13.4-31.7L201.2,45.7L201.2,45.7z"/>
	<path class="st0" d="M252.5,45.7v46.6h-12.8v-5.6c-1.8,2-3.9,3.6-6.4,4.6c-2.5,1.1-5.2,1.6-8.1,1.6c-6.1,0-11-1.8-14.6-5.3
		c-3.6-3.5-5.4-8.8-5.4-15.7V45.6h13.5V70c0,7.5,3.1,11.3,9.4,11.3c3.2,0,5.8-1.1,7.8-3.2s2.9-5.2,2.9-9.4V45.7L252.5,45.7
		L252.5,45.7z"/>
	<path class="st0" d="M268,91.6c-3.7-0.9-6.6-2.2-8.8-3.6l4.5-9.7c2.1,1.3,4.6,2.4,7.5,3.2s5.8,1.3,8.7,1.3c5.7,0,8.6-1.4,8.6-4.2
		c0-1.3-0.8-2.3-2.3-2.9s-4-1.1-7.2-1.5c-3.8-0.6-7-1.2-9.5-2c-2.5-0.8-4.6-2.1-6.5-4s-2.7-4.6-2.7-8.2c0-3,0.9-5.6,2.6-7.8
		c1.7-2.3,4.2-4.1,7.5-5.3c3.3-1.3,7.1-1.9,11.6-1.9c3.3,0,6.6,0.4,9.8,1.1c3.3,0.7,6,1.7,8.1,3l-4.5,9.6c-4.1-2.3-8.6-3.5-13.4-3.5
		c-2.9,0-5.1,0.4-6.5,1.2c-1.5,0.8-2.2,1.8-2.2,3.1c0,1.5,0.8,2.5,2.3,3c1.6,0.6,4,1.1,7.5,1.7c3.8,0.6,6.9,1.3,9.4,2s4.5,2,6.3,3.9
		c1.8,1.9,2.7,4.6,2.7,8c0,2.9-0.9,5.5-2.6,7.7s-4.3,4-7.6,5.2c-3.3,1.2-7.3,1.9-11.8,1.9C275.5,93,271.7,92.5,268,91.6L268,91.6z"
		/>
	<path class="st0" d="M142.1,44.9c0,0,0.7,0-5.9,0c-8.9,0-18.5,4.5-18.5,19.3v27.4H131V69.4c0-18.5,15.6-11.9,15.6-11.9L142.1,44.9
		L142.1,44.9z"/>
</g>
<g>
	<path class="st0" d="M686.6,54.3c1.2-1.9,2.6-3.6,4.2-5c-0.9-0.5-6-2.9-14.7-2.9s-18.5,4.5-18.5,19.3v27.4H671V70.8
		c0-16.5,11.1-13,13.6-12.1C685.1,57.2,685.7,55.7,686.6,54.3z"/>
	<path class="st0" d="M544.1,81.6V93h-47V31.4H543v11.5h-31.9v13.4h28.2v11.1h-28.2v14.3L544.1,81.6L544.1,81.6z"/>
	<path class="st0" d="M591.9,50.9c3.5,3.5,5.3,8.6,5.3,15.4V93h-13.5V68.4c0-3.7-0.8-6.5-2.4-8.3s-4-2.7-7-2.7c-3.4,0-6.1,1-8.2,3.2
		s-3,5.2-3,9.4V93h-13.5V46.4h12.9v5.5c1.8-2,4-3.5,6.7-4.5c2.7-1.1,5.6-1.6,8.8-1.6C583.6,45.7,588.3,47.4,591.9,50.9L591.9,50.9z"
		/>
	<path class="st0" d="M651.8,73.5h-35.3c0.6,2.9,2.1,5.2,4.5,6.8s5.3,2.5,8.8,2.5c2.4,0,4.6-0.4,6.5-1.1s3.6-1.9,5.2-3.4l7.2,7.8
		c-4.4,5-10.8,7.5-19.2,7.5c-5.3,0-9.9-1-14-3.1c-4-2.1-7.2-4.9-9.4-8.5c-2.2-3.6-3.3-7.8-3.3-12.4s1.1-8.7,3.2-12.3
		s5.1-6.5,8.9-8.6c3.8-2,8-3.1,12.7-3.1s8.7,1,12.4,3c3.7,2,6.6,4.8,8.7,8.5c2.1,3.7,3.2,7.9,3.2,12.8C652,70,651.9,71.2,651.8,73.5
		L651.8,73.5z M620.1,58.5c-2.1,1.7-3.3,4.1-3.8,7.1h23c-0.5-3-1.7-5.3-3.8-7.1c-2.1-1.8-4.6-2.6-7.6-2.6S622.2,56.8,620.1,58.5
		L620.1,58.5z"/>
	<path class="st0" d="M740.5,46.4v38.8c0,8.6-2.2,14.9-6.7,19.1s-11,6.2-19.5,6.2c-4.5,0-8.8-0.6-12.8-1.7s-7.4-2.7-10-4.8l5.4-9.7
		c2,1.6,4.5,2.9,7.5,3.9c3,0.9,6,1.4,9,1.4c4.7,0,8.1-1.1,10.4-3.2c2.2-2.1,3.3-5.3,3.3-9.6v-2c-3.5,3.9-8.4,5.8-14.7,5.8
		c-4.3,0-8.2-0.9-11.7-2.8s-6.4-4.5-8.5-7.9s-3.1-7.3-3.1-11.8s1-8.4,3.1-11.8s4.9-6,8.5-7.9s7.5-2.8,11.7-2.8
		c6.8,0,11.9,2.2,15.4,6.7v-6L740.5,46.4L740.5,46.4z M723.8,76.5c2.3-2.1,3.4-4.9,3.4-8.3s-1.1-6.2-3.4-8.3
		c-2.3-2.1-5.2-3.2-8.8-3.2s-6.5,1-8.8,3.2s-3.5,4.9-3.5,8.3s1.2,6.2,3.5,8.3s5.3,3.2,8.8,3.2S721.5,78.6,723.8,76.5z"/>
	<path class="st0" d="M798,46.4l-21.1,49.5c-2.1,5.4-4.8,9.2-7.9,11.3c-3.2,2.2-7,3.3-11.4,3.3c-2.4,0-4.8-0.4-7.2-1.1
		c-2.4-0.8-4.3-1.8-5.8-3.1l4.9-9.6c1,0.9,2.2,1.7,3.6,2.2s2.7,0.8,4,0.8c1.8,0,3.3-0.4,4.5-1.3c1.2-0.9,2.2-2.4,3.1-4.5l0.2-0.4
		l-20.2-47h14L771.8,78L785,46.4L798,46.4L798,46.4z"/>
</g>
<g>
	<circle class="st1" cx="398.2" cy="62.4" r="62.4"/>
	<rect x="367" y="31.2" class="st0" width="62.4" height="8.9"/>
	<rect x="380.4" y="49" class="st0" width="35.6" height="8.9"/>
	<rect x="380.4" y="84.6" class="st0" width="35.6" height="8.9"/>
	<rect x="367" y="66.8" class="st0" width="62.4" height="8.9"/>
</g>
</svg>
