<svg xmlns="http://www.w3.org/2000/svg" id="Layer_2" viewBox="0 0 323.30729 53.10512"><g id="Layer_1-2"><path d="M14.87813,32.23901s2.79358,5.35344,9.77633,5.37881c6.54306.02378,9.20688-2.79261,9.20688-2.79261l-2.87068-4.21551s-2.18534,2.18534-6.33619,1.74536c-3.06725-.32512-4.06034-3.16778-4.06034-3.16778h-2.56034v3.04493l-3.15565.00679Z" fill="#30318c" stroke-width="0"></path><polygon points="10.33659 24.15536 13.24902 24.15536 13.26746 21.17856 17.54305 21.17856 17.54305 24.14815 20.5209 24.15536 20.5209 28.68858 17.51858 28.68858 17.54305 31.66006 13.26746 31.66006 13.26746 28.66246 10.33659 28.66246 10.33659 24.15536" fill="#f15d25" stroke-width="0"></polygon><path d="M15.00792,20.68038h3.00864v2.94657h2.49997s.80172-2.99999,4.11206-2.99999c4.18965,0,4.44827,3.67241,4.44827,3.67241h-7.16875v4.35556h13.69698s.27349-5.6228-2.20927-8.86417c-2.68935-3.51109-5.5862-4.3362-8.94826-4.36206-6.67541-.05135-9.43964,5.25168-9.43964,5.25168Z" fill="#30318c" stroke-width="0"></path><path d="M53.58602,24.94252c0-2.58105-1.35596-3.5-3.45557-3.5-2.0127,0-3.3252,1.09375-4.1123,2.05566v13.6499h-6.7373v-21.13037h6.7373v2.58105c1.26855-1.4873,3.76221-3.10547,7.30566-3.10547,4.81201,0,6.99951,2.7998,6.99951,6.69238v14.9624h-6.7373v-12.20557Z" fill="#30318c" stroke-width="0"></path><path d="M75.06111,15.4933c6.25586,0,10.80566,4.59277,10.80566,11.76758v1.44336h-15.04932c.39404,1.96875,2.23145,3.76318,5.38086,3.76318,1.88135,0,3.98096-.74414,5.16211-1.79443l2.84375,4.20068c-2.1001,1.88086-5.59961,2.7998-8.83691,2.7998-6.51807,0-11.54932-4.24414-11.54932-11.11279,0-6.12402,4.63721-11.06738,11.24316-11.06738ZM70.73006,24.33022h8.70557c-.1748-1.48828-1.26855-3.63184-4.37451-3.63184-2.93115,0-4.06836,2.10059-4.33105,3.63184Z" fill="#30318c" stroke-width="0"></path><path d="M89.18709,16.01772h6.7373v2.66895c1.3999-1.70605,4.06836-3.19336,6.60547-3.19336v6.51758c-.39355-.13086-.9624-.21875-1.66211-.21875-1.75,0-4.06836.74414-4.94336,1.96875v13.38721h-6.7373v-21.13037Z" fill="#30318c" stroke-width="0"></path><path d="M107.95174,37.76039c1.61865,1.75,3.98096,2.4502,6.43115,2.4502,2.23096,0,5.38086-.91895,5.38086-4.85645v-1.61816c-1.75,2.05566-3.8501,3.0625-6.25586,3.0625-5.16211,0-9.31836-3.54395-9.31836-10.67529,0-6.95605,4.0249-10.62988,9.31836-10.62988,2.3623,0,4.54932.91797,6.25586,3.01855v-2.49414h6.69287v19.24951c0,8.61816-6.82422,10.45508-12.07373,10.45508-3.63135,0-6.6499-.91895-9.36182-3.14941l2.93066-4.8125ZM119.76375,23.32338c-.83154-1.1377-2.625-1.88086-4.0249-1.88086-2.66846,0-4.63721,1.61816-4.63721,4.68066,0,3.10645,1.96875,4.7251,4.63721,4.7251,1.3999,0,3.19336-.74365,4.0249-1.88135v-5.64355Z" fill="#30318c" stroke-width="0"></path><path d="M133.58357,39.77309c1.53125,0,2.49365-.30664,2.84375-1.18164l.48096-1.13672-8.39941-21.43701h7.08691l4.76855,13.38672,4.81201-13.38672h7.13086l-9.53662,24.14893c-1.70654,4.46191-4.8999,5.46875-8.92432,5.55566-.61279,0-2.1875-.13086-2.8877-.34961l.9624-5.99316c.48145.26172,1.1377.39355,1.6626.39355Z" fill="#30318c" stroke-width="0"></path><path d="M162.14461,29.79799c1.57471,1.40088,4.94336,2.80029,7.43701,2.80029,2.01221,0,2.84326-.65625,2.84326-1.5752,0-1.09326-1.44336-1.48779-3.63086-1.8374-3.5874-.6123-8.66162-1.35645-8.66162-6.7373,0-3.71777,3.19336-6.95508,9.05566-6.95508,3.54346,0,6.56201,1.13672,8.8374,2.7998l-2.58105,4.46191c-1.26855-1.22461-3.6748-2.31836-6.21289-2.31836-1.57471,0-2.66846.52441-2.66846,1.44336,0,.96191,1.13721,1.3125,3.36865,1.70605,3.58789.6123,8.9248,1.4873,8.9248,7.08691,0,4.0249-3.54395,7.00049-9.625,7.00049-3.76221,0-7.65576-1.26953-9.88672-3.2373l2.7998-4.63818Z" fill="#f15d25" stroke-width="0"></path><path d="M183.70809,31.46059v-9.58057h-3.5v-5.8623h3.5v-5.77441h6.69336v5.77441h4.28711v5.8623h-4.28711v7.69922c0,1.2251.7002,2.14404,1.88086,2.14404.74414,0,1.4873-.2627,1.70605-.52441l1.3125,5.07422c-.83105.78711-2.49316,1.40039-4.9873,1.40039-4.28711,0-6.60547-2.14355-6.60547-6.21289Z" fill="#f15d25" stroke-width="0"></path><path d="M196.65437,26.56069c0-5.94922,4.33105-11.06738,11.50586-11.06738,7.26172,0,11.54883,5.11816,11.54883,11.06738,0,5.95068-4.28711,11.11279-11.54883,11.11279-7.1748,0-11.50586-5.16211-11.50586-11.11279ZM212.79695,26.56069c0-2.7998-1.66211-5.11816-4.63672-5.11816-2.93164,0-4.5498,2.31836-4.5498,5.11816,0,2.84375,1.61816,5.1626,4.5498,5.1626,2.97461,0,4.63672-2.31885,4.63672-5.1626Z" fill="#f15d25" stroke-width="0"></path><path d="M223.24812,16.01772h6.73633v2.66895c1.40039-1.70605,4.06836-3.19336,6.60645-3.19336v6.51758c-.39355-.13086-.96289-.21875-1.66309-.21875-1.74902,0-4.06836.74414-4.94336,1.96875v13.38721h-6.73633v-21.13037Z" fill="#f15d25" stroke-width="0"></path><path d="M252.11824,35.04848c-1.3125,1.57422-3.84961,2.625-6.5625,2.625-3.2373,0-7.26172-2.1875-7.26172-6.95654,0-5.11816,4.02441-6.64941,7.26172-6.64941,2.7998,0,5.29395.875,6.5625,2.44922v-2.66797c0-1.83789-1.5752-3.0625-4.28711-3.0625-2.10059,0-4.28711.78711-5.99414,2.23145l-2.40527-4.24414c2.71191-2.31836,6.34277-3.28027,9.58008-3.28027,5.0752,0,9.84277,1.88086,9.84277,8.44238v13.2124h-6.73633v-2.09961ZM252.11824,29.84194c-.7002-.96289-2.27539-1.4873-3.7627-1.4873-1.79297,0-3.36816.78711-3.36816,2.44971,0,1.66309,1.5752,2.4502,3.36816,2.4502,1.4873,0,3.0625-.52441,3.7627-1.53125v-1.88135Z" fill="#f15d25" stroke-width="0"></path><path d="M266.11336,37.76039c1.61816,1.75,3.98047,2.4502,6.43066,2.4502,2.23047,0,5.38086-.91895,5.38086-4.85645v-1.61816c-1.75,2.05566-3.84961,3.0625-6.25586,3.0625-5.16211,0-9.31836-3.54395-9.31836-10.67529,0-6.95605,4.02441-10.62988,9.31836-10.62988,2.3623,0,4.5498.91797,6.25586,3.01855v-2.49414h6.69336v19.24951c0,8.61816-6.8252,10.45508-12.07422,10.45508-3.63086,0-6.64941-.91895-9.3623-3.14941l2.93164-4.8125ZM277.92488,23.32338c-.83105-1.1377-2.625-1.88086-4.02441-1.88086-2.66895,0-4.6377,1.61816-4.6377,4.68066,0,3.10645,1.96875,4.7251,4.6377,4.7251,1.39941,0,3.19336-.74365,4.02441-1.88135v-5.64355Z" fill="#f15d25" stroke-width="0"></path><path d="M299.40047,15.4933c6.25586,0,10.80566,4.59277,10.80566,11.76758v1.44336h-15.04883c.39355,1.96875,2.23047,3.76318,5.38086,3.76318,1.88086,0,3.98047-.74414,5.16211-1.79443l2.84277,4.20068c-2.09961,1.88086-5.59961,2.7998-8.83594,2.7998-6.51855,0-11.5498-4.24414-11.5498-11.11279,0-6.12402,4.6377-11.06738,11.24316-11.06738ZM295.06941,24.33022h8.70605c-.17578-1.48828-1.26953-3.63184-4.375-3.63184-2.93066,0-4.06836,2.10059-4.33105,3.63184Z" fill="#f15d25" stroke-width="0"></path><path d="M162.58113,49.18715c.76514.73438,1.91309,1.31641,3.29053,1.31641.58154,0,1.13232-.19922,1.13232-.59668,0-.39844-.42822-.59766-1.43848-.78125-1.68359-.30566-4.25439-.7041-4.25439-3.25977,0-1.72949,1.43848-3.30566,4.23926-3.30566,1.66797,0,3.16797.47461,4.33057,1.42383l-1.65234,2.18848c-.8877-.67383-2.03564-1.01074-2.84668-1.01074-.76514,0-.93359.27539-.93359.53613,0,.39746.41309.53516,1.5.71875,1.68359.29102,4.17773.78125,4.17773,3.1377,0,2.25-1.66797,3.55078-4.40723,3.55078-2.17334,0-3.6582-.64258-4.74463-1.62207l1.60693-2.2959Z" fill="#30318c" stroke-width="0"></path><path d="M177.70418,42.54457c3.15332,0,5.58691,2.14355,5.58691,5.28027,0,3.1377-2.43359,5.28027-5.58691,5.28027-3.15234,0-5.58594-2.14258-5.58594-5.28027,0-3.13672,2.43359-5.28027,5.58594-5.28027ZM177.70418,45.26918c-1.48438,0-2.44824,1.13281-2.44824,2.55566,0,1.42383.96387,2.55566,2.44824,2.55566s2.44922-1.13184,2.44922-2.55566c0-1.42285-.96484-2.55566-2.44922-2.55566Z" fill="#30318c" stroke-width="0"></path><path d="M185.92586,42.71352h3.0918v7.51465h3.87207v2.69336h-6.96387v-10.20801Z" fill="#30318c" stroke-width="0"></path><path d="M195.35652,42.71352h3.1377v5.90723c0,.97949.50488,1.75977,1.77539,1.75977,1.25488,0,1.75977-.78027,1.75977-1.75977v-5.90723h3.1377v5.99902c0,2.54102-1.4541,4.39258-4.89746,4.39258s-4.91309-1.85156-4.91309-4.37695v-6.01465Z" fill="#30318c" stroke-width="0"></path><path d="M210.54305,45.40688h-2.73926v-2.69336h8.55566v2.69336h-2.72461v7.51465h-3.0918v-7.51465Z" fill="#30318c" stroke-width="0"></path><path d="M218.99324,42.71352h3.0918v10.20801h-3.0918v-10.20801Z" fill="#30318c" stroke-width="0"></path><path d="M230.30574,42.54457c3.15332,0,5.58691,2.14355,5.58691,5.28027,0,3.1377-2.43359,5.28027-5.58691,5.28027-3.15234,0-5.58594-2.14258-5.58594-5.28027,0-3.13672,2.43359-5.28027,5.58594-5.28027ZM230.30574,45.26918c-1.48438,0-2.44824,1.13281-2.44824,2.55566,0,1.42383.96387,2.55566,2.44824,2.55566s2.44922-1.13184,2.44922-2.55566c0-1.42285-.96484-2.55566-2.44922-2.55566Z" fill="#30318c" stroke-width="0"></path><path d="M241.61922,47.44203v5.47949h-3.0918v-10.20801h3.18359l3.55078,5.14258v-5.14258h3.0918v10.20801h-2.96973l-3.76465-5.47949Z" fill="#30318c" stroke-width="0"></path><path d="M252.36727,49.18715c.76465.73438,1.91309,1.31641,3.29004,1.31641.58203,0,1.13281-.19922,1.13281-.59668,0-.39844-.42871-.59766-1.43848-.78125-1.68359-.30566-4.25488-.7041-4.25488-3.25977,0-1.72949,1.43848-3.30566,4.23926-3.30566,1.66797,0,3.16797.47461,4.33105,1.42383l-1.65332,2.18848c-.88672-.67383-2.03516-1.01074-2.8457-1.01074-.76562,0-.93359.27539-.93359.53613,0,.39746.41309.53516,1.49902.71875,1.68359.29102,4.17871.78125,4.17871,3.1377,0,2.25-1.66797,3.55078-4.4082,3.55078-2.17285,0-3.65723-.64258-4.74414-1.62207l1.60742-2.2959Z" fill="#30318c" stroke-width="0"></path><polyline points="9.72247 26.39426 1.08966 26.39426 1.08966 1.08966 322.21763 1.08966 322.21763 27.55017 313.15227 27.55017" fill="none" stroke="#f15a22" stroke-width="2.17931"></polyline></g></svg>