<?xml version="1.0" encoding="utf-8"?>
<!-- Generator: Adobe Illustrator 24.0.1, SVG Export Plug-In . SVG Version: 6.00 Build 0)  -->
<svg version="1.1" id="图层_1" xmlns="http://www.w3.org/2000/svg" xmlns:xlink="http://www.w3.org/1999/xlink" x="0px" y="0px"
	 viewBox="0 0 196 66.9" style="enable-background:new 0 0 196 66.9;" xml:space="preserve">
<style type="text/css">
	.st0{fill:#FFFFFF;}
</style>
<g>
	<g>
		<g>
			<path class="st0" d="M55.7,42.9L44,47l-6.4-12.8l3.4-2.6l6.7-5.1c1.9-1.4,2.9,0.7,2.9,0.7L56.9,40C58,42.1,55.7,42.9,55.7,42.9z"
				/>
			<polygon class="st0" points="24.6,41.7 5.9,56.5 14.4,41.7 			"/>
			<g>
				<path class="st0" d="M47.7,59.2c0-0.1,0-0.2,0-0.3c0-0.1,0-0.1-0.1-0.2L21.9,7.4c-0.1-0.2-0.2-0.4-0.3-0.6c-0.4-0.6-1.1-1-1.9-1
					c-0.1,0-0.2,0-0.3,0c-0.1,0-0.2,0-0.3,0.1c-0.2,0-0.5,0.1-0.6,0.3c-0.1,0.1-0.2,0.1-0.3,0.2c-0.1,0.1-0.2,0.2-0.3,0.3
					c-0.3,0.4-0.4,0.7-0.4,0.7l-15,30.4c-0.1,0.1-0.1,0.3-0.2,0.4c-0.1,0.1-0.1,0.3-0.2,0.4C2,39,2,39.3,1.9,39.6
					c0,0.2-0.1,0.3-0.1,0.5c0,0.2-0.1,0.4-0.1,0.6c0,0.2,0,0.5,0,0.7v17.7v0c0,0.6,0.3,1,0.7,1.4c0.2,0.2,0.5,0.3,0.8,0.3
					c0.3,0.1,0.7-0.1,1-0.2l1.1-0.4c0,0,25.1-8.6,25.1-8.6l-4.1-8.2l-20,14.7c0,0-1.9,1.4-2,1.4c-0.3,0.2-0.7,0.3-1,0
					c-0.3-0.2-0.2-0.6-0.1-0.9c0.1-0.2,14.2-28.8,14.2-28.8c0.1-0.2,0.2-0.3,0.3-0.5c0.4-0.6,1.1-1.1,1.9-1.1c0.1,0,0.2,0,0.3,0
					c0.1,0,0.2,0,0.3,0.1c0.1,0,0.1,0,0.2,0.1c0.1,0,0.2,0.1,0.3,0.1c0.2,0.1,0.3,0.2,0.5,0.3c0.1,0.1,0.2,0.3,0.3,0.4
					c0.2,0.3,0.3,0.5,0.3,0.5s13.7,27.3,13.7,27.3c0.1,0.2,0.2,0.4,0.3,0.6c1.1,1.7,3,2.8,5.1,3.1c0.3,0,0.6,0.1,0.9,0.1h4.2
					c0.9,0,1.6-0.7,1.6-1.6C47.7,59.3,47.7,59.3,47.7,59.2z"/>
			</g>
		</g>
	</g>
	<g>
		<g>
			<path class="st0" d="M85,44l-7.7-21.8c-0.7-2.1-2.1-2.5-3.1-2.5c-1.5,0-2.5,0.8-3.1,2.5L63.4,44c0,0.1,0,0.2,0,0.3
				c0.1,0.1,0.2,0.1,0.3,0.1h3.4c0.1,0,0.3-0.1,0.3-0.2l2.2-6.4h9.1l2.2,6.4c0,0.1,0.2,0.2,0.3,0.2h3.5c0.1,0,0.2-0.1,0.3-0.1
				C85.1,44.2,85.1,44.1,85,44z M77.6,34.6h-6.9l3.5-10.2L77.6,34.6z"/>
		</g>
		<g>
			<path class="st0" d="M91,43.7c0,0.1-0.1,0.2-0.2,0.2l-2.6,1.3c0,0-0.1,0-0.1,0c-0.1,0-0.2,0-0.2-0.1c-1.3-1.4-1.8-3.1-1.8-5.5
				V20.8c0-0.6,0.5-1.1,1.1-1.1h1.3c0.6,0,1.1,0.5,1.1,1.1v18.6c0,1.6,0.4,2.8,1.3,4C91,43.5,91.1,43.6,91,43.7z"/>
		</g>
		<g>
			<path class="st0" d="M99.9,26.2c-1.5,0-4.4,0.2-6.8,1.5c-0.1,0.1-0.1,0.2-0.2,0.3C92.9,29,92.8,30,92.8,31v19.5
				c0,0.2,0.1,0.3,0.3,0.3h3c0.2,0,0.3-0.1,0.3-0.3v-6.3c1.4,0.3,2.8,0.5,4,0.5c5.6,0,7.7-2.6,7.7-9.2
				C108.2,28.7,105.9,26.2,99.9,26.2z M96.4,32.1c0-0.8,0-1.7,0.1-2.3c0.9-0.4,2.2-0.6,3.4-0.6c3.9,0,4.6,2.2,4.6,6.3
				c0,4.2-0.5,6.2-4.9,6.2c-0.9,0-2.2-0.2-3.2-0.5V32.1z"/>
		</g>
		<g>
			<path class="st0" d="M125.5,32.8v11.3c0,0.2-0.1,0.3-0.3,0.3h-3c-0.2,0-0.3-0.1-0.3-0.3V33.3c0-2.8-0.4-4-4.3-4
				c-1.2,0-2.5,0.2-3.5,0.6v14.2c0,0.2-0.1,0.3-0.3,0.3h-3c-0.2,0-0.3-0.1-0.3-0.3V20.8c0-0.6,0.5-1.1,1.1-1.1h1.3
				c0.6,0,1.1,0.5,1.1,1.1v5.9c1.4-0.4,2.9-0.6,4.4-0.6c2.7,0,4.5,0.5,5.6,1.6C125.4,29.1,125.5,31,125.5,32.8z"/>
		</g>
		<g>
			<path class="st0" d="M135.1,26.2c-2.5,0-4.6,0.3-6.6,0.6c-0.2,0-0.3,0.2-0.3,0.3l0.2,1.5c0,0.3,0.2,0.5,0.4,0.7
				c0.2,0.2,0.5,0.2,0.8,0.2c1.4-0.2,3.3-0.4,5.2-0.4c3.3,0,3.9,1.3,3.9,3.5v0.1c-2.3,0.1-4.6,0.2-6.6,0.5c-3.2,0.5-4.8,2.4-4.8,5.7
				c0,3.9,2.1,5.6,7,5.6c3,0,5.3-0.4,7.2-1.3c0.4-0.2,0.7-0.6,0.7-1c0.1-0.8,0.1-1.7,0.1-2.6v-8C142.2,26.8,138.2,26.2,135.1,26.2z
				 M138.7,38.8c0,1,0,1.7-0.1,2.3c-1,0.4-2.3,0.6-3.9,0.6c-2.9,0-3.8-0.7-3.8-2.7c0-2.1,0.7-2.6,2.4-3c1.5-0.3,3.7-0.4,5.3-0.4
				V38.8z"/>
		</g>
		<path class="st0" d="M154.2,23.2h6.2c0.1,0,0.1-0.1,0.1-0.2v-2.6c0-0.1-0.1-0.1-0.1-0.2c-1.7-0.1-4.4-0.1-6.1-0.1
			c-3.8,0-8.1,0-8.1,5.6v13.1c0,5.6,4.3,5.6,8.1,5.6c1.8,0,4.3-0.1,6.1-0.2c0.1,0,0.1-0.1,0.1-0.1v-2.6c0-0.1-0.1-0.1-0.1-0.1h-6.2
			c-4,0-4.4-0.8-4.4-4v-3.9h10.1c0.1,0,0.1-0.1,0.1-0.1v-2.6c0-0.1,0-0.2-0.1-0.2h-10.1v-3.4C149.8,24,150.2,23.2,154.2,23.2z"/>
		<path class="st0" d="M171,30.4c-3.5-1-5-1.4-5-4.3c0-2.8,2.8-3.1,5.9-3.1c1.4,0,2.9,0.1,4.9,0.4l0.1,0c0,0,0.1-0.1,0.1-0.1
			l0.3-2.6c0-0.1,0-0.1-0.1-0.2c-2-0.4-4.3-0.6-6.3-0.6c-5.8,0-8.4,2-8.4,6.6c0,4.5,2.6,5.6,6.8,6.9c3,0.9,4.8,1.6,4.8,4.2
			c0,2.7-1.4,3.8-5.1,3.8c-1.7,0-4-0.2-5.9-0.5c-0.1,0-0.1,0-0.1,0l0,0.1l0,0l-0.3,2.7c0,0.1,0,0.1,0.1,0.2c2,0.4,3.9,0.6,6.4,0.6
			c6,0,8.7-2.2,8.7-7C177.8,33.2,175.1,31.6,171,30.4z M187.7,30.4c-3.5-1-4.9-1.4-4.9-4.3c0-2.8,2.8-3.1,5.9-3.1
			c1.4,0,2.9,0.1,4.9,0.4c0,0,0.1,0,0.1,0c0,0,0,0,0,0c0,0,0.1-0.1,0.1-0.1l0.3-2.7c0,0-0.1-0.1-0.1-0.1c-1.9-0.4-4.3-0.6-6.3-0.6
			c-5.8,0-8.4,2-8.4,6.6c0,4.5,2.6,5.6,6.9,6.9c2.9,0.9,4.7,1.6,4.7,4.2c0,2.7-1.4,3.8-5.1,3.8c-1.7,0-4-0.2-5.9-0.5
			c-0.1,0-0.1,0-0.1,0l0,0.1l0,0l-0.3,2.7c0,0.1,0,0.1,0.1,0.2c2,0.4,3.9,0.6,6.4,0.6c6,0,8.7-2.2,8.7-7
			C194.4,33.2,191.8,31.6,187.7,30.4z"/>
	</g>
</g>
</svg>
