<svg width="353" height="37" viewBox="0 0 353 37" fill="none" xmlns="http://www.w3.org/2000/svg">
<path d="M97.2544 15.1265H87.4301V12.5467H95.7348V7.77593H87.4301V5.47889H96.901V0.496094H80.9277V20.1093H97.2544V15.1265Z" fill="white"/>
<path d="M106.231 11.1685L113.687 20.1093H119.129V0.496094H112.698V9.40154L105.241 0.496094H99.7988V20.1093H106.231V11.1685Z" fill="white"/>
<path d="M138.637 15.1265H128.848V12.5467H137.117V7.77593H128.848V5.47889H138.284V0.496094H122.346V20.1093H138.637V15.1265Z" fill="white"/>
<path d="M147.79 15.1618H149.592L152.914 20.1093H159.982L155.847 14.0663C156.943 13.5009 157.826 12.7587 158.462 11.8046C159.205 10.7091 159.558 9.40155 159.558 7.88197C159.558 6.36239 159.205 5.05483 158.462 3.95932C157.72 2.86381 156.695 1.98033 155.353 1.37957C154.01 0.778806 152.419 0.496094 150.617 0.496094H141.182V20.1093H147.79V15.1618ZM152.243 6.18567C152.667 6.60974 152.914 7.13985 152.914 7.88197C152.914 8.58875 152.702 9.15417 152.243 9.57824C151.819 10.0023 151.112 10.179 150.228 10.179H147.825V5.58493H150.228C151.112 5.58493 151.819 5.79694 152.243 6.18567Z" fill="white"/>
<path d="M164.364 17.7045C165.353 18.6233 166.519 19.3301 167.827 19.8249C169.17 20.3196 170.619 20.567 172.209 20.567C173.658 20.567 175.142 20.3549 176.662 19.9309C178.181 19.5068 179.559 18.8707 180.761 18.0932V9.78855H175.036V14.7714C174.965 14.8067 174.895 14.842 174.824 14.8774C174.117 15.1248 173.375 15.2661 172.633 15.2661C171.926 15.2661 171.29 15.1601 170.725 14.9127C170.159 14.6653 169.664 14.3473 169.24 13.9232C168.816 13.4992 168.498 12.9691 168.286 12.3683C168.074 11.7675 167.933 11.0961 167.933 10.354C167.933 9.57653 168.039 8.90507 168.286 8.30431C168.498 7.70355 168.816 7.20881 169.24 6.7494C169.664 6.32533 170.159 6.00729 170.725 5.75991C171.325 5.54788 171.961 5.40652 172.704 5.40652C173.587 5.40652 174.365 5.58322 175.107 5.93661C175.813 6.29 176.485 6.85542 177.121 7.5622L181.362 3.8516C180.372 2.65007 179.1 1.6959 177.58 1.0598C176.061 0.423699 174.329 0.0703125 172.386 0.0703125C170.76 0.0703125 169.276 0.317699 167.933 0.812446C166.59 1.30719 165.424 2.01397 164.399 2.93279C163.409 3.8516 162.632 4.9471 162.102 6.18397C161.572 7.42083 161.289 8.8344 161.289 10.3186C161.289 11.8029 161.572 13.2164 162.102 14.4533C162.632 15.6902 163.409 16.7857 164.364 17.7045Z" fill="white"/>
<path d="M188.642 20.1093H195.285V12.9708L202.671 0.496094H196.275L192.246 7.2812L188.253 0.496094H181.256L188.642 12.9001V20.1093Z" fill="white"/>
<path d="M220.8 15.3725C220.447 15.4432 219.952 15.5139 219.316 15.5139C218.22 15.5139 217.125 15.3372 215.959 15.0191C214.793 14.701 213.768 14.2417 212.849 13.7116L210.729 18.5177C211.718 19.1184 212.99 19.6132 214.51 19.9666C216.029 20.3553 217.62 20.532 219.281 20.532C221.33 20.532 222.991 20.2139 224.369 19.6132C225.712 19.0124 226.737 18.1996 227.409 17.2101C228.08 16.2206 228.433 15.1251 228.433 13.9236C228.433 12.8988 228.221 12.0506 227.833 11.3439C227.444 10.6371 226.914 10.107 226.278 9.64758C225.642 9.22351 224.935 8.87011 224.157 8.62274C223.38 8.37537 222.638 8.16333 221.86 8.02197C221.083 7.88061 220.376 7.73925 219.74 7.5979C219.104 7.45654 218.574 7.3152 218.185 7.10316C217.796 6.89113 217.584 6.64376 217.584 6.29037C217.584 6.07834 217.655 5.8663 217.832 5.6896C217.973 5.51291 218.256 5.33622 218.644 5.2302C219.033 5.12418 219.528 5.0535 220.164 5.0535C221.012 5.0535 221.896 5.15952 222.814 5.40689C223.733 5.65427 224.652 6.00765 225.642 6.5024L227.621 1.69629C226.596 1.13087 225.43 0.671446 224.157 0.424073C222.885 0.141361 221.578 0 220.235 0C218.22 0 216.524 0.282712 215.181 0.883477C213.838 1.48424 212.814 2.29706 212.142 3.28655C211.471 4.27604 211.117 5.40688 211.117 6.60841C211.117 7.66858 211.329 8.51673 211.718 9.22351C212.107 9.93029 212.637 10.4957 213.273 10.9198C213.909 11.3438 214.616 11.6972 215.393 11.9446C216.171 12.192 216.948 12.404 217.69 12.5807C218.468 12.7221 219.175 12.8988 219.811 13.0401C220.447 13.1815 220.977 13.3582 221.366 13.5702C221.754 13.7822 221.966 14.065 221.966 14.4184C221.966 14.6304 221.896 14.8424 221.719 14.9838C221.401 15.1605 221.154 15.3018 220.8 15.3725Z" fill="white"/>
<path d="M234.299 20.1093H240.908V5.62026H246.668V0.496094H228.574V5.62026H234.299V20.1093Z" fill="white"/>
<path d="M250.45 17.634C251.439 18.5528 252.605 19.2596 253.984 19.7897C255.326 20.2844 256.811 20.5318 258.401 20.5318C259.991 20.5318 261.475 20.2844 262.818 19.7897C264.161 19.2949 265.327 18.5882 266.317 17.634C267.306 16.7152 268.084 15.6197 268.614 14.3828C269.179 13.1459 269.427 11.7677 269.427 10.2835C269.427 8.79924 269.144 7.42101 268.614 6.18414C268.049 4.94727 267.306 3.85178 266.317 2.93296C265.327 2.01415 264.161 1.30735 262.818 0.777268C261.475 0.282521 259.991 0.0351562 258.401 0.0351562C256.811 0.0351562 255.326 0.282521 253.984 0.777268C252.641 1.27201 251.439 1.97881 250.45 2.93296C249.46 3.85178 248.683 4.94727 248.153 6.18414C247.587 7.42101 247.34 8.79924 247.34 10.2835C247.34 11.7677 247.623 13.1106 248.153 14.3828C248.683 15.6197 249.46 16.7152 250.45 17.634ZM254.302 8.23382C254.514 7.63306 254.832 7.10296 255.256 6.6789C255.645 6.25483 256.139 5.93677 256.669 5.72474C257.199 5.5127 257.765 5.37135 258.401 5.37135C259.002 5.37135 259.603 5.47736 260.133 5.72474C260.663 5.93677 261.122 6.25483 261.546 6.6789C261.935 7.10296 262.253 7.59772 262.5 8.23382C262.712 8.83459 262.854 9.54136 262.854 10.2835C262.854 11.0609 262.748 11.7324 262.5 12.3331C262.288 12.9339 261.97 13.464 261.546 13.8881C261.157 14.3121 260.663 14.6302 260.133 14.8422C259.603 15.0542 259.037 15.1956 258.401 15.1956C257.8 15.1956 257.199 15.0896 256.669 14.8422C256.139 14.6302 255.68 14.3121 255.256 13.8881C254.867 13.464 254.549 12.9692 254.302 12.3331C254.09 11.7324 253.948 11.0256 253.948 10.2835C253.984 9.54136 254.09 8.83459 254.302 8.23382Z" fill="white"/>
<path d="M278.474 15.1618H280.276L283.598 20.1093H290.595H290.666H297.345L298.652 16.6814H306.109L307.416 20.1093H314.272L305.685 0.496094H299.182L290.63 20.0739L286.531 14.0663C287.626 13.5009 288.51 12.7587 289.146 11.8046C289.888 10.7091 290.242 9.40155 290.242 7.88197C290.242 6.36239 289.888 5.05483 289.146 3.95932C288.404 2.86381 287.379 1.98033 286.036 1.37957C284.693 0.778806 283.103 0.496094 281.301 0.496094H271.865V20.1093H278.474V15.1618ZM300.49 11.9106L302.398 6.96314L304.306 11.9106H300.49ZM282.926 6.18567C283.35 6.60974 283.598 7.13985 283.598 7.88197C283.598 8.58875 283.386 9.15417 282.926 9.57824C282.502 10.0023 281.796 10.179 280.912 10.179H278.509V5.58493H280.912C281.796 5.58493 282.467 5.79694 282.926 6.18567Z" fill="white"/>
<path d="M317.346 17.7045C318.336 18.6233 319.502 19.3301 320.809 19.8249C322.152 20.3196 323.601 20.567 325.191 20.567C326.64 20.567 328.125 20.3549 329.644 19.9309C331.164 19.5068 332.542 18.8707 333.743 18.0932V9.78855H327.983V14.7714C327.913 14.8067 327.842 14.842 327.771 14.8774C327.064 15.1248 326.322 15.2661 325.58 15.2661C324.873 15.2661 324.237 15.1601 323.672 14.9127C323.106 14.6653 322.612 14.3473 322.188 13.9232C321.764 13.4992 321.445 12.9691 321.233 12.3683C321.021 11.7675 320.88 11.0961 320.88 10.354C320.88 9.57653 320.986 8.90507 321.233 8.30431C321.445 7.70355 321.764 7.20881 322.188 6.7494C322.612 6.32533 323.106 6.00729 323.672 5.75991C324.273 5.54788 324.909 5.40652 325.651 5.40652C326.534 5.40652 327.312 5.58322 328.054 5.93661C328.761 6.29 329.432 6.85542 330.068 7.5622L334.309 3.8516C333.319 2.65007 332.047 1.6959 330.528 1.0598C329.008 0.423699 327.276 0.0703125 325.333 0.0703125C323.707 0.0703125 322.223 0.317699 320.88 0.812446C319.537 1.30719 318.371 2.01397 317.346 2.93279C316.357 3.8516 315.579 4.9471 315.049 6.18397C314.519 7.42083 314.236 8.8344 314.236 10.3186C314.236 11.8029 314.519 13.2164 315.049 14.4533C315.615 15.6902 316.357 16.7857 317.346 17.7045Z" fill="white"/>
<path d="M352.897 15.1265H343.073V12.5467H351.377V7.77593H343.073V5.47889H352.544V0.496094H336.57V20.1093H352.897V15.1265Z" fill="white"/>
<path d="M91.918 26.4684C91.4586 25.7616 90.7872 25.2315 89.939 24.8428C89.0909 24.4541 88.1014 24.2773 86.9352 24.2773H80.9629V36.7167H85.1682V33.6422H86.9705C88.1367 33.6422 89.1262 33.4655 89.9744 33.0768C90.8225 32.688 91.4586 32.1579 91.9533 31.4512C92.4127 30.7444 92.6601 29.9316 92.6601 28.9774C92.6601 28.0233 92.3774 27.1752 91.918 26.4684ZM87.96 30.0376C87.6773 30.285 87.2532 30.4263 86.6878 30.4263H85.1682V27.5285H86.6878C87.2532 27.5285 87.7127 27.6699 87.96 27.9173C88.2427 28.1646 88.3841 28.518 88.3841 28.9774C88.3841 29.4015 88.2427 29.7549 87.96 30.0376Z" fill="white"/>
<path d="M107.68 30.4985C107.68 29.5443 107.503 28.6962 107.15 27.8834C106.796 27.1059 106.302 26.3992 105.701 25.8337C105.065 25.233 104.323 24.8089 103.474 24.4908C102.626 24.1728 101.672 23.9961 100.683 23.9961C99.6579 23.9961 98.739 24.1728 97.8909 24.4908C97.0428 24.8089 96.3006 25.2683 95.6645 25.8337C95.0284 26.4345 94.5337 27.1059 94.2156 27.8834C93.8622 28.6608 93.6855 29.5443 93.6855 30.4985C93.6855 31.4173 93.8622 32.3008 94.2156 33.0782C94.569 33.8557 95.0638 34.5625 95.6645 35.1632C96.3006 35.764 97.0428 36.1881 97.8909 36.5061C98.739 36.8242 99.6932 37.0009 100.683 37.0009C101.708 37.0009 102.626 36.8242 103.474 36.5061C104.323 36.1881 105.065 35.7287 105.701 35.1632C106.337 34.5625 106.832 33.891 107.15 33.0782C107.503 32.3008 107.68 31.4173 107.68 30.4985ZM103.262 31.806C103.121 32.1947 102.909 32.5128 102.662 32.7955C102.414 33.0782 102.096 33.2549 101.778 33.3963C101.425 33.5376 101.071 33.6083 100.683 33.6083C100.294 33.6083 99.9406 33.5376 99.5872 33.3963C99.2338 33.2549 98.9511 33.0429 98.7037 32.7955C98.4563 32.5128 98.2443 32.1947 98.1029 31.806C97.9616 31.4173 97.8909 30.9932 97.8909 30.4985C97.8909 30.0037 97.9616 29.5797 98.1029 29.1909C98.2443 28.8022 98.4563 28.4842 98.7037 28.2015C98.9511 27.9187 99.2691 27.742 99.5872 27.6007C99.9052 27.4593 100.294 27.3886 100.683 27.3886C101.071 27.3886 101.425 27.4593 101.778 27.6007C102.132 27.742 102.414 27.9541 102.662 28.2015C102.909 28.4842 103.121 28.8022 103.262 29.1909C103.404 29.5797 103.474 30.0037 103.474 30.4985C103.474 30.9932 103.404 31.4173 103.262 31.806Z" fill="white"/>
<path d="M125.032 36.7167L129.025 24.2773H125.032L122.735 31.4512L120.579 24.2773H116.727L114.43 31.3452L112.274 24.2773H107.928L111.921 36.7167H116.409L118.529 30.073L120.544 36.7167H125.032Z" fill="white"/>
<path d="M140.298 33.5362H134.078V31.9106H139.344V28.9068H134.078V27.4225H140.05V24.2773H129.943V36.7167H140.298V33.5362Z" fill="white"/>
<path d="M147.258 33.5717L149.378 36.7169H153.831L151.216 32.8649C151.923 32.5115 152.453 32.0521 152.877 31.416C153.336 30.7092 153.584 29.8964 153.584 28.9423C153.584 27.9881 153.336 27.14 152.877 26.4332C152.418 25.7264 151.746 25.1963 150.898 24.8076C150.05 24.4189 149.06 24.2422 147.894 24.2422H141.922V36.6815H146.127V33.5364H147.258V33.5717ZM148.919 27.8821C149.202 28.1295 149.343 28.4829 149.343 28.9423C149.343 29.4017 149.202 29.7551 148.919 30.0025C148.636 30.2498 148.212 30.3912 147.647 30.3912H146.127V27.4934H147.647C148.212 27.4934 148.636 27.6347 148.919 27.8821Z" fill="white"/>
<path d="M159.346 24.2773H155.141V36.7167H159.346V24.2773Z" fill="white"/>
<path d="M169.558 29.9316L164.823 24.2773H161.359V36.7167H165.459V31.0624L170.194 36.7167H173.622V24.2773H169.558V29.9316Z" fill="white"/>
<path d="M184.929 36.577C185.884 36.2943 186.767 35.9055 187.509 35.4108V30.1453H183.869V33.2904C183.834 33.3258 183.763 33.3258 183.728 33.3611C183.268 33.5378 182.809 33.6085 182.35 33.6085C181.89 33.6085 181.501 33.5378 181.148 33.3964C180.795 33.2551 180.477 33.0431 180.229 32.7604C179.982 32.4776 179.77 32.1596 179.628 31.7709C179.487 31.3821 179.416 30.9581 179.416 30.4987C179.416 30.0039 179.487 29.5798 179.628 29.1911C179.77 28.8024 179.982 28.4843 180.229 28.2016C180.477 27.9189 180.795 27.7069 181.183 27.5655C181.572 27.4241 181.961 27.3535 182.42 27.3535C182.986 27.3535 183.48 27.4595 183.94 27.7069C184.399 27.9542 184.823 28.2723 185.212 28.7317L187.898 26.364C187.262 25.5865 186.484 24.9858 185.495 24.597C184.541 24.173 183.445 23.9609 182.208 23.9609C181.183 23.9609 180.229 24.1023 179.381 24.4203C178.533 24.7384 177.791 25.1978 177.155 25.7632C176.519 26.3286 176.024 27.0354 175.706 27.8129C175.352 28.5903 175.176 29.4738 175.176 30.428C175.176 31.3821 175.352 32.2656 175.706 33.0431C176.059 33.8205 176.519 34.5273 177.155 35.0927C177.791 35.6582 178.498 36.1176 179.346 36.4356C180.194 36.7537 181.113 36.895 182.138 36.895C183.021 37.001 183.975 36.8597 184.929 36.577Z" fill="white"/>
<path d="M202.884 24.2773H198.749L193.307 36.7167H197.583L198.431 34.561H203.166L204.014 36.7167H208.361L202.884 24.2773ZM199.562 31.5219L200.763 28.3767L201.965 31.5219H199.562Z" fill="white"/>
<path d="M220.446 24.2773L216.488 30.8858L212.424 24.2773H208.996V36.7167H212.813V31.2391L215.498 35.5858H217.371L220.057 31.0271L220.093 36.7167H223.909L223.874 24.2773H220.446Z" fill="white"/>
<path d="M236.066 27.4225V24.2773H225.924V36.7167H236.278V33.5362H230.059V31.9106H235.324V28.9068H230.059V27.4225H236.066Z" fill="white"/>
<path d="M248.859 31.4512C249.319 30.7444 249.566 29.9316 249.566 28.9774C249.566 28.0233 249.319 27.1752 248.859 26.4684C248.4 25.7616 247.729 25.2315 246.88 24.8428C246.032 24.4541 245.043 24.2773 243.877 24.2773H237.904V36.7167H242.11V33.5715H243.24L245.361 36.7167H249.849L247.234 32.8647C247.905 32.5113 248.471 32.0519 248.859 31.4512ZM244.901 27.8819C245.184 28.1293 245.325 28.4827 245.325 28.9421C245.325 29.4015 245.184 29.7549 244.901 30.0023C244.619 30.2496 244.195 30.391 243.629 30.391H242.11V27.4932H243.629C244.195 27.4932 244.619 27.6346 244.901 27.8819Z" fill="white"/>
<path d="M255.362 24.2773H251.156V36.7167H255.362V24.2773Z" fill="white"/>
<path d="M261.899 28.2368C262.146 27.9541 262.464 27.742 262.818 27.6007C263.171 27.4593 263.56 27.3886 264.019 27.3886C264.585 27.3886 265.08 27.53 265.539 27.7774C265.998 28.0248 266.387 28.3781 266.74 28.8375L269.391 26.4698C268.79 25.657 268.013 25.0563 267.059 24.6322C266.104 24.2081 265.044 23.9961 263.807 23.9961C262.818 23.9961 261.899 24.1374 261.051 24.4555C260.203 24.7735 259.461 25.233 258.86 25.7984C258.224 26.3638 257.764 27.0706 257.411 27.8481C257.058 28.6255 256.881 29.509 256.881 30.4631C256.881 31.4173 257.058 32.3008 257.411 33.0782C257.764 33.8557 258.224 34.5625 258.86 35.1279C259.496 35.6933 260.203 36.1527 261.051 36.4708C261.899 36.7888 262.818 36.9302 263.807 36.9302C265.044 36.9302 266.104 36.7182 267.059 36.2941C268.013 35.87 268.79 35.2339 269.391 34.4564L266.74 32.0887C266.387 32.5482 265.963 32.9015 265.539 33.1489C265.08 33.3963 264.585 33.5376 264.019 33.5376C263.595 33.5376 263.171 33.467 262.818 33.3256C262.464 33.1843 262.146 32.9722 261.899 32.6895C261.652 32.4068 261.44 32.0887 261.298 31.7C261.157 31.3113 261.086 30.8872 261.086 30.4278C261.086 29.9684 261.157 29.509 261.298 29.1556C261.44 28.8375 261.652 28.4842 261.899 28.2368Z" fill="white"/>
<path d="M284.056 36.7167L278.614 24.2773H274.479L269.037 36.7167H273.313L274.161 34.561H278.897L279.745 36.7167H284.056ZM275.327 31.5219L276.529 28.3767L277.731 31.5219H275.327Z" fill="white"/>
<path d="M286.106 30.6037L287.343 27.9533C287.555 27.4939 287.697 27.1405 287.803 26.8931C287.909 26.6104 287.944 26.3984 287.979 26.2217C288.015 26.045 288.015 25.8329 288.015 25.6562C288.015 24.9495 287.803 24.4194 287.343 23.9953C286.884 23.5712 286.354 23.3945 285.647 23.3945C284.976 23.3945 284.41 23.6066 283.951 23.9953C283.491 24.4194 283.279 24.9495 283.279 25.6562C283.279 26.3277 283.491 26.8931 283.951 27.2818C284.092 27.4232 284.269 27.5292 284.445 27.5999L283.527 30.6037H286.106Z" fill="white"/>
<path d="M299.394 34.8805C299.818 34.2444 300.03 33.5376 300.03 32.7955C300.03 32.1594 299.889 31.594 299.642 31.1699C299.394 30.7458 299.076 30.3925 298.652 30.1097C298.228 29.827 297.804 29.615 297.309 29.4383C296.815 29.2616 296.32 29.1556 295.86 29.0496C295.366 28.9436 294.906 28.8729 294.518 28.7669C294.093 28.6962 293.775 28.5902 293.528 28.4488C293.281 28.3075 293.139 28.1661 293.139 27.9541C293.139 27.8127 293.175 27.6713 293.281 27.5653C293.387 27.4593 293.563 27.3533 293.775 27.2826C294.023 27.2119 294.341 27.1766 294.73 27.1766C295.26 27.1766 295.825 27.2473 296.426 27.424C296.991 27.5653 297.592 27.8127 298.228 28.1308L299.5 25.0916C298.864 24.7382 298.122 24.4555 297.309 24.2788C296.497 24.1021 295.648 23.9961 294.836 23.9961C293.563 23.9961 292.503 24.1728 291.62 24.5615C290.772 24.9502 290.1 25.445 289.676 26.0811C289.252 26.7172 289.04 27.424 289.04 28.2015C289.04 28.8729 289.181 29.403 289.429 29.8624C289.676 30.3218 289.994 30.6752 290.418 30.9225C290.842 31.2053 291.266 31.4173 291.761 31.594C292.256 31.7707 292.751 31.8767 293.21 31.9827C293.705 32.0887 294.129 32.1948 294.553 32.2654C294.977 32.3715 295.295 32.4775 295.542 32.5835C295.79 32.7248 295.931 32.9015 295.931 33.1136C295.931 33.2549 295.86 33.3609 295.754 33.467C295.648 33.573 295.472 33.6437 295.26 33.7143C295.012 33.785 294.694 33.785 294.306 33.785C293.634 33.785 292.927 33.679 292.185 33.467C291.443 33.2549 290.807 32.9722 290.206 32.6542L288.863 35.7287C289.499 36.1174 290.277 36.4001 291.266 36.6475C292.221 36.8948 293.245 37.0009 294.306 37.0009C295.613 37.0009 296.673 36.8242 297.521 36.4354C298.299 36.0467 298.97 35.5166 299.394 34.8805Z" fill="white"/>
<path d="M318.476 30.1453H314.836V33.2904C314.801 33.3258 314.73 33.3258 314.695 33.3611C314.235 33.5378 313.776 33.6085 313.316 33.6085C312.857 33.6085 312.468 33.5378 312.115 33.3964C311.761 33.2551 311.443 33.0431 311.196 32.7604C310.949 32.4776 310.737 32.1596 310.595 31.7709C310.454 31.3821 310.383 30.9581 310.383 30.4987C310.383 30.0039 310.454 29.5798 310.595 29.1911C310.737 28.8024 310.949 28.4843 311.196 28.2016C311.443 27.9189 311.761 27.7069 312.15 27.5655C312.539 27.4241 312.928 27.3535 313.387 27.3535C313.953 27.3535 314.447 27.4595 314.907 27.7069C315.366 27.9542 315.79 28.2723 316.179 28.7317L318.865 26.364C318.229 25.5865 317.451 24.9858 316.462 24.597C315.507 24.173 314.412 23.9609 313.175 23.9609C312.15 23.9609 311.196 24.1023 310.348 24.4203C309.5 24.7384 308.758 25.1978 308.122 25.7632C307.485 26.3286 306.991 27.0354 306.673 27.8129C306.319 28.5903 306.143 29.4738 306.143 30.428C306.143 31.3821 306.319 32.2656 306.673 33.0431C307.026 33.8205 307.485 34.5273 308.122 35.0927C308.758 35.6582 309.464 36.1176 310.313 36.4356C311.161 36.7537 312.08 36.895 313.104 36.895C314.023 36.895 314.942 36.7537 315.932 36.471C316.886 36.1882 317.769 35.7995 318.511 35.3048V30.1453H318.476Z" fill="white"/>
<path d="M320.279 24.2775V36.7169H324.485V33.5717H325.615L327.736 36.7169H332.224L329.609 32.8649C330.316 32.5115 330.846 32.0521 331.27 31.416C331.729 30.7092 331.977 29.8964 331.977 28.9423C331.977 27.9881 331.729 27.14 331.27 26.4332C330.81 25.7264 330.139 25.1963 329.291 24.8076C328.443 24.4189 327.453 24.2422 326.287 24.2422H320.279V24.2775ZM327.7 28.9776C327.7 29.437 327.559 29.7904 327.276 30.0378C326.994 30.2852 326.57 30.4265 326.004 30.4265H324.485V27.5287H326.004C326.57 27.5287 327.029 27.6701 327.276 27.9174C327.559 28.1648 327.7 28.5182 327.7 28.9776Z" fill="white"/>
<path d="M337.737 24.2773H333.531V36.7167H337.737V24.2773Z" fill="white"/>
<path d="M339.752 36.7167H345.901C347.279 36.7167 348.516 36.4693 349.576 35.9746C350.636 35.4798 351.449 34.7377 352.05 33.8189C352.651 32.9001 352.933 31.7692 352.933 30.497C352.933 29.2248 352.651 28.1293 352.05 27.1752C351.449 26.2563 350.636 25.5496 349.576 25.0195C348.516 24.5247 347.315 24.2773 345.901 24.2773H339.752V36.7167ZM343.957 27.5285H345.724C346.325 27.5285 346.82 27.6346 347.279 27.8819C347.739 28.094 348.057 28.4474 348.304 28.8714C348.551 29.2955 348.693 29.8256 348.693 30.4617C348.693 31.0978 348.551 31.6279 348.304 32.0873C348.057 32.5467 347.703 32.8647 347.279 33.0768C346.82 33.2888 346.325 33.4302 345.724 33.4302H343.957V27.5285Z" fill="white"/>
<path d="M0 0.492188V36.7147H75.7669V0.492188H0ZM8.234 32.368H4.13467V4.59151H8.234V32.368ZM16.4327 32.368H12.3333V4.59151H16.4327V32.368ZM24.6667 32.368H20.5673V4.59151H24.6667V32.368ZM37.0707 32.6154L38.1308 21.0949L30.3209 22.3317L40.2865 4.62686L38.4842 16.2534L45.5167 15.0519L37.0707 32.6154ZM55.2349 32.368H51.1356V4.59151H55.2349V32.368ZM63.4336 32.368H59.3343V4.59151H63.4336V32.368ZM71.6676 32.368H67.5683V4.59151H71.6676V32.368Z" fill="white"/>
</svg>
