<svg xmlns="http://www.w3.org/2000/svg" width="173" height="43" fill="none">
  <g clip-path="url(#clip0_4621_36602)">
    <path fill="#fff" d="m24.516.434 3.266 6.202h22.39V.434H24.515ZM36.009 22.28H50.17v-6.202H32.742l3.267 6.202ZM44.236 37.934h5.935v-6.211h-9.202l3.267 6.211Z"/>
    <path fill="#FE5000" d="m25.628 11.614-3.506 6.672L29.19 31.72H10.289L23.236 7.078 19.739.434.01 37.932h39.46l-13.84-26.318Z"/>
    <path fill="#fff" d="m65.97 10.281 2.227-5.429 2.227 5.43H65.97ZM69.936.426h-3.395l-7.178 16.858h3.755l1.527-3.754h7.077l1.527 3.754h3.847L69.927.426h.01Z"/>
    <mask id="mask0_4621_36602" width="1768" height="994" x="-695" y="-188" maskUnits="userSpaceOnUse" style="mask-type:luminance">
      <path fill="#fff" d="M1072.05-187.85H-694.76v993.83h1766.81v-993.83Z"/>
    </mask>
    <g mask="url(#mask0_4621_36602)">
      <path fill="#fff" d="M84.062 14.44c-1.693 0-3.128-1.409-3.128-3.544v-.046c0-2.153 1.435-3.542 3.128-3.542 1.694 0 3.11 1.407 3.11 3.542v.046c0 2.126-1.407 3.543-3.11 3.543Zm6.7 2.843V-.174h-3.635V6.14c-.865-1.03-2.062-1.914-3.994-1.914-3.037 0-5.834 2.346-5.834 6.625v.046c0 4.28 2.843 6.626 5.834 6.626 1.886 0 3.11-.883 3.994-2.08v1.84h3.635Z"/>
    </g>
    <path fill="#fff" d="m101.638 4.475-2.899 8.585-2.871-8.585h-3.846l5.042 12.91h3.304l5.043-12.91h-3.773Z"/>
    <mask id="mask1_4621_36602" width="1768" height="994" x="-695" y="-188" maskUnits="userSpaceOnUse" style="mask-type:luminance">
      <path fill="#fff" d="M1072.05-187.85H-694.76v993.83h1766.81v-993.83Z"/>
    </mask>
    <g mask="url(#mask1_4621_36602)">
      <path fill="#fff" d="M113.657 12.122v.645c0 1.315-1.15 2.245-2.844 2.245-1.168 0-1.987-.57-1.987-1.555v-.046c0-1.15.957-1.767 2.512-1.767.883 0 1.693.193 2.319.478Zm-3.184-2.65c-3.037 0-5.162 1.288-5.162 4.086v.046c0 2.53 1.978 3.92 4.398 3.92 1.767 0 2.991-.644 3.874-1.629v1.39h3.515V9.849c0-3.469-1.748-5.52-5.714-5.52-2.172 0-3.561.404-4.978 1.03l.911 2.77c1.168-.433 2.153-.69 3.533-.69 1.822 0 2.752.837 2.752 2.346v.212a9.065 9.065 0 0 0-3.129-.525Z"/>
    </g>
    <mask id="mask2_4621_36602" width="1768" height="994" x="-695" y="-188" maskUnits="userSpaceOnUse" style="mask-type:luminance">
      <path fill="#fff" d="M1072.05-187.85H-694.76v993.83h1766.81v-993.83Z"/>
    </mask>
    <g mask="url(#mask2_4621_36602)">
      <path fill="#fff" d="M123.033 10.143c0-1.721.884-2.605 2.273-2.605 1.39 0 2.2.884 2.2 2.605v7.15h3.634V9.002c0-2.945-1.601-4.758-4.352-4.758-1.841 0-2.917.985-3.755 2.052V4.483h-3.635v12.819h3.635v-7.16Z"/>
    </g>
    <mask id="mask3_4621_36602" width="1768" height="994" x="-695" y="-188" maskUnits="userSpaceOnUse" style="mask-type:luminance">
      <path fill="#fff" d="M1072.05-187.85H-694.76v993.83h1766.81v-993.83Z"/>
    </mask>
    <g mask="url(#mask3_4621_36602)">
      <path fill="#fff" d="M139.662 14.44c-1.988 0-3.248-1.573-3.248-3.542v-.046c0-1.886 1.288-3.488 3.11-3.488 1.288 0 2.098.553 2.917 1.408l2.227-2.392c-1.196-1.344-2.705-2.153-5.116-2.153-3.921 0-6.718 3.009-6.718 6.671v.046c0 3.663 2.825 6.626 6.672 6.626 2.558 0 3.993-.985 5.236-2.347l-2.126-2.153c-.884.837-1.721 1.362-2.945 1.362"/>
    </g>
    <mask id="mask4_4621_36602" width="1768" height="994" x="-695" y="-188" maskUnits="userSpaceOnUse" style="mask-type:luminance">
      <path fill="#fff" d="M1072.05-187.85H-694.76v993.83h1766.81v-993.83Z"/>
    </mask>
    <g mask="url(#mask4_4621_36602)">
      <path fill="#fff" d="M148.846 9.877c.285-1.647 1.27-2.724 2.77-2.724s2.484 1.105 2.705 2.724h-5.475Zm2.77-5.64c-3.727 0-6.341 3.008-6.341 6.67v.047c0 3.92 2.844 6.625 6.7 6.625 2.319 0 4.039-.91 5.236-2.392l-2.08-1.84c-1.003.929-1.887 1.315-3.11 1.315-1.629 0-2.77-.865-3.129-2.512h8.917c.027-.331.046-.552.046-.91v-.047c0-3.635-1.96-6.957-6.239-6.957Z"/>
    </g>
    <mask id="mask5_4621_36602" width="1768" height="994" x="-695" y="-188" maskUnits="userSpaceOnUse" style="mask-type:luminance">
      <path fill="#fff" d="M1072.05-187.85H-694.76v993.83h1766.81v-993.83Z"/>
    </mask>
    <g mask="url(#mask5_4621_36602)">
      <path fill="#fff" d="M169.026 10.908c0 2.126-1.408 3.543-3.11 3.543-1.703 0-3.129-1.408-3.129-3.543v-.046c0-2.153 1.436-3.543 3.129-3.543s3.11 1.408 3.11 3.543v.046Zm-.046-11.07V6.15c-.865-1.031-2.061-1.914-3.994-1.914-3.036 0-5.834 2.346-5.834 6.625v.046c0 4.279 2.844 6.626 5.834 6.626 1.887 0 3.111-.884 3.994-2.08v1.84h3.635V-.162h-3.635Z"/>
    </g>
    <path fill="#fff" d="M63.026 31.143h7.896v-3.276h-7.896V24.47h8.972v-3.276H59.373v16.739h12.745v-3.276h-9.092v-3.515Z"/>
    <mask id="mask6_4621_36602" width="1768" height="994" x="-695" y="-188" maskUnits="userSpaceOnUse" style="mask-type:luminance">
      <path fill="#fff" d="M1072.05-187.85H-694.76v993.83h1766.81v-993.83Z"/>
    </mask>
    <g mask="url(#mask6_4621_36602)">
      <path fill="#fff" d="M81.55 24.875c-1.841 0-2.918.985-3.755 2.061v-1.813H74.16v12.819h3.635v-7.15c0-1.72.883-2.604 2.273-2.604 1.39 0 2.2.883 2.2 2.604v7.15h3.634v-8.291c0-2.945-1.601-4.758-4.353-4.758"/>
    </g>
    <mask id="mask7_4621_36602" width="1768" height="994" x="-695" y="-188" maskUnits="userSpaceOnUse" style="mask-type:luminance">
      <path fill="#fff" d="M1072.05-187.85H-694.76v993.83h1766.81v-993.83Z"/>
    </mask>
    <g mask="url(#mask7_4621_36602)">
      <path fill="#fff" d="M91.166 30.516c.285-1.647 1.27-2.724 2.77-2.724s2.485 1.104 2.705 2.724h-5.475Zm2.77-5.641c-3.727 0-6.34 3.01-6.34 6.672v.046c0 3.92 2.843 6.625 6.69 6.625 2.319 0 4.04-.91 5.236-2.393l-2.08-1.84c-1.003.93-1.886 1.316-3.11 1.316-1.63 0-2.78-.856-3.138-2.512h8.917c.027-.331.046-.552.046-.911v-.046c0-3.635-1.96-6.957-6.24-6.957"/>
    </g>
    <mask id="mask8_4621_36602" width="1768" height="994" x="-695" y="-188" maskUnits="userSpaceOnUse" style="mask-type:luminance">
      <path fill="#fff" d="M1072.05-187.85H-694.76v993.83h1766.81v-993.83Z"/>
    </mask>
    <g mask="url(#mask8_4621_36602)">
      <path fill="#fff" d="M105.668 27.7v-2.586h-3.635v12.819h3.635v-4.73c0-3.065 1.482-4.518 3.902-4.518h.193v-3.8c-2.153-.093-3.35 1.048-4.086 2.815"/>
    </g>
    <mask id="mask9_4621_36602" width="1768" height="994" x="-695" y="-188" maskUnits="userSpaceOnUse" style="mask-type:luminance">
      <path fill="#fff" d="M1072.05-187.85H-694.76v993.83h1766.81v-993.83Z"/>
    </mask>
    <g mask="url(#mask9_4621_36602)">
      <path fill="#fff" d="M120.255 30.902c0 1.749-1.362 2.963-3.129 2.963s-3.11-1.196-3.11-2.963v-.046c0-1.748 1.334-2.963 3.11-2.963 1.776 0 3.129 1.224 3.129 2.963v.046Zm-.046-4.113c-.985-1.077-2.154-1.914-4.141-1.914-2.945 0-5.687 2.153-5.687 5.981v.046c0 3.8 2.705 5.973 5.687 5.973 1.932 0 3.11-.792 4.187-2.08v.626c0 2.291-1.169 3.487-3.663 3.487-1.693 0-3.009-.432-4.325-1.168l-1.242 2.723c1.629.856 3.589 1.335 5.669 1.335 4.757 0 7.15-1.933 7.15-6.764v-9.92h-3.635v1.675Z"/>
    </g>
    <mask id="mask10_4621_36602" width="1768" height="994" x="-695" y="-188" maskUnits="userSpaceOnUse" style="mask-type:luminance">
      <path fill="#fff" d="M1072.05-187.85H-694.76v993.83h1766.81v-993.83Z"/>
    </mask>
    <g mask="url(#mask10_4621_36602)">
      <path fill="#fff" d="m131.867 33.839-2.917-8.724h-3.846l5.024 12.865c-.313.644-.644.837-1.27.837-.479 0-1.077-.211-1.555-.506l-1.215 2.632c.93.552 1.914.883 3.23.883 2.181 0 3.23-.984 4.205-3.589l4.924-13.122h-3.782l-2.798 8.724Z"/>
    </g>
    <mask id="mask11_4621_36602" width="1768" height="994" x="-695" y="-188" maskUnits="userSpaceOnUse" style="mask-type:luminance">
      <path fill="#fff" d="M1072.05-187.85H-694.76v993.83h1766.81v-993.83Z"/>
    </mask>
    <g mask="url(#mask11_4621_36602)">
      <path fill="#fff" d="M136.579 37.923v-.506h.387c.193 0 .313.083.313.248 0 .157-.12.258-.313.258h-.387Zm.967-.267c0-.294-.212-.478-.562-.478h-.672v1.509h.267v-.525h.332l.368.525h.313l-.405-.57a.451.451 0 0 0 .359-.46Z"/>
    </g>
    <mask id="mask12_4621_36602" width="1768" height="994" x="-695" y="-188" maskUnits="userSpaceOnUse" style="mask-type:luminance">
      <path fill="#fff" d="M1072.05-187.85H-694.76v993.83h1766.81v-993.83Z"/>
    </mask>
    <g mask="url(#mask12_4621_36602)">
      <path fill="#fff" d="M136.883 39.222c-.718 0-1.298-.58-1.298-1.288 0-.71.58-1.298 1.298-1.298.717 0 1.288.58 1.288 1.297 0 .718-.58 1.289-1.288 1.289Zm0-2.853a1.564 1.564 0 1 0 0 3.129c.865 0 1.564-.7 1.564-1.564 0-.865-.699-1.565-1.564-1.565Z"/>
    </g>
  </g>
  <defs>
    <clipPath id="clip0_4621_36602">
      <path fill="#fff" d="M0 .795h173v41.41H0z"/>
    </clipPath>
  </defs>
</svg>
