<svg width="120" height="72" viewBox="0 0 120 72" fill="none" xmlns="http://www.w3.org/2000/svg">
<path d="M72.3936 20.6634V19.55H46.8336L43.877 27.37L72.3936 20.6634Z" fill="black"/>
<path d="M42.1172 19.55V26.6734L46.4739 19.55H42.1172Z" fill="black"/>
<path d="M42.4668 47.9433H65.4301L43.0401 30.9233L42.4668 47.9433Z" fill="black"/>
<path d="M72.3937 21.7766L43.957 29.2599L66.0337 47.9433H72.3937V21.7766Z" fill="black"/>
<path d="M23.4928 51.0667L19.4995 59.4833H19.4595L15.3895 51.0667H11.8828V61.28H13.8395V52.0833H13.8795L18.4028 61.28H20.2428L24.7661 52.0833H24.8061V61.28H26.7628V51.0667H23.4928Z" fill="black"/>
<path d="M38.2867 57.7301C38.2867 59.9368 36.6233 61.4935 33.3933 61.4935C30.1633 61.4935 28.5 59.9368 28.5 57.7301C28.5 55.5235 30.1633 53.9668 33.3933 53.9668C36.6233 53.9668 38.2867 55.5235 38.2867 57.7301ZM33.39 60.5168C35.6033 60.5168 36.3267 59.2435 36.3267 57.7301C36.3267 56.2168 35.6033 54.9435 33.39 54.9435C31.1767 54.9435 30.4533 56.2168 30.4533 57.7301C30.4533 59.2435 31.1767 60.5168 33.39 60.5168Z" fill="black"/>
<path d="M44.4435 54.1599C43.1768 54.1732 42.2535 54.6132 41.9068 55.5499H41.8668V54.1766H40.0068V61.2799H41.8668V57.7566C41.8668 56.2566 42.9335 55.2932 44.3802 55.2932C44.6302 55.2932 45.0935 55.2999 45.4068 55.3066V54.1799C45.1935 54.1799 44.6702 54.1599 44.4435 54.1632" fill="black"/>
<path d="M57.9731 60.5168C56.0731 60.5168 55.3698 59.2301 55.5065 57.9835H62.4365V57.3201C62.4365 55.3535 61.0465 54.0101 58.1098 53.9668C54.9965 53.9668 53.5498 55.7068 53.5498 57.7868C53.5498 59.8668 54.8031 61.4935 57.9531 61.4935C60.2398 61.4935 61.9298 60.7268 62.2898 59.1968H60.3298C60.0831 60.1368 59.3598 60.5168 57.9731 60.5168ZM57.9731 54.9435C59.7731 54.9435 60.5198 55.8635 60.4798 57.0501H55.5065C55.5065 55.8901 56.4265 54.9435 57.9731 54.9435Z" fill="black"/>
<path d="M66.0862 55.2234H66.1262C66.7529 54.3334 68.1229 53.9634 69.1029 53.9634C69.7862 53.9634 72.8229 54.09 72.8229 56.37V61.28H70.9629V56.81C70.9629 55.6367 70.2795 55 68.7129 55C68.7129 55 67.6962 54.96 66.9129 55.5234C66.6395 55.72 66.1295 56.0334 66.1295 57.42V61.2834H64.2695V54.18H66.0895V55.2267L66.0862 55.2234Z" fill="black"/>
<path d="M78.657 53.9668C80.517 53.9668 82.6103 54.5335 82.4736 56.1468H80.517C80.5936 55.2401 79.637 54.9435 78.5603 54.9435C77.5603 54.9435 76.7603 55.2835 76.7603 56.0768C76.7603 56.8701 78.4436 56.9268 79.147 57.0801C80.8103 57.4768 82.7303 57.6168 82.7303 59.2168C82.7303 60.9568 80.3803 61.4935 78.3636 61.4935C76.347 61.4935 74.587 60.8135 74.6036 59.1735H76.5603C76.6003 60.0501 77.4203 60.5168 78.557 60.5168C79.6936 60.5168 80.767 60.2068 80.767 59.2868C80.767 57.7035 74.797 58.8901 74.797 56.1168C74.797 54.6301 76.8736 53.9668 78.6536 53.9668" fill="black"/>
<path d="M93.9664 57.7301C93.9664 59.9368 92.303 61.4935 89.073 61.4935C85.843 61.4935 84.1797 59.9368 84.1797 57.7301C84.1797 55.5235 85.843 53.9668 89.073 53.9668C92.303 53.9668 93.9664 55.5235 93.9664 57.7301ZM89.0697 60.5168C91.2797 60.5168 92.0064 59.2435 92.0064 57.7301C92.0064 56.2168 91.283 54.9435 89.0697 54.9435C86.8564 54.9435 86.133 56.2168 86.133 57.7301C86.133 59.2435 86.8564 60.5168 89.0697 60.5168Z" fill="black"/>
<path d="M97.4368 55.2234H97.4768C98.1035 54.3334 99.4735 53.9634 100.453 53.9634C101.14 53.9634 104.173 54.09 104.173 56.37V61.28H102.313V56.81C102.313 55.6367 101.63 55 100.063 55C100.063 55 99.0468 54.96 98.2635 55.5234C97.9901 55.72 97.4801 56.0334 97.4801 57.42V61.2834H95.6201V54.18H97.4401V55.2267L97.4368 55.2234Z" fill="black"/>
<path d="M50.2304 52.2768V54.1934H52.277V55.3034H50.2004V58.6434C50.197 59.5301 50.1537 59.8901 50.307 60.0901C50.567 60.4334 50.8237 60.4234 50.937 60.4368C51.0704 60.4534 51.2604 60.4634 51.5904 60.4668C51.8104 60.4701 51.937 60.4834 52.4204 60.4668V61.4434C52.187 61.4734 52.0137 61.4768 51.537 61.4968C51.2804 61.5068 50.9737 61.5134 50.7504 61.5134C49.8537 61.5134 49.227 61.3734 48.877 61.0834C48.527 60.7968 48.3504 60.2968 48.3504 59.5768V55.3034H46.3037V54.1934H48.3504V52.8801L50.2237 52.2734L50.2304 52.2768Z" fill="black"/>
<path d="M73.8799 10.6768V20.3134L99.8032 14.2168L99.8932 14.5401L73.8799 21.3868V47.9434H104.157V10.6768H73.8799Z" fill="#0070B9"/>
<path d="M26.0635 42.0133L25.8735 41.8166L39.9169 29.2666H11.8535V47.9433H41.7302L41.1669 30.9399L26.0635 42.0133Z" fill="#0070B9"/>
<path d="M106.034 46.7267V47.5167H105.884V45.8567H106.427C106.8 45.8567 106.987 46 106.987 46.29C106.987 46.3834 106.957 46.46 106.894 46.5234C106.837 46.5834 106.76 46.6234 106.667 46.6467C106.764 46.6667 106.834 46.71 106.88 46.7767C106.914 46.8334 106.937 46.9134 106.947 47.02C106.95 47.0767 106.96 47.1834 106.977 47.33C106.984 47.4067 107.004 47.4667 107.034 47.5134H106.86C106.837 47.4467 106.817 47.33 106.804 47.1667C106.787 46.97 106.76 46.8467 106.727 46.8C106.687 46.7467 106.59 46.72 106.447 46.72H106.037L106.034 46.7267ZM106.034 46.59H106.354C106.5 46.59 106.604 46.5767 106.67 46.55C106.774 46.5067 106.827 46.42 106.827 46.2934C106.827 46.1567 106.77 46.0667 106.657 46.0234C106.607 46.0034 106.51 45.9967 106.37 45.9967H106.034V46.59Z" fill="black"/>
<path d="M106.43 48.1066C105.644 48.1066 105.007 47.4666 105.007 46.6799C105.007 45.8933 105.647 45.2566 106.43 45.2566C107.214 45.2566 107.854 45.8966 107.854 46.6799C107.854 47.4633 107.214 48.1066 106.43 48.1066ZM106.43 45.4433C105.747 45.4433 105.19 45.9999 105.19 46.6833C105.19 47.3666 105.747 47.9233 106.43 47.9233C107.114 47.9233 107.67 47.3666 107.67 46.6833C107.67 45.9999 107.114 45.4433 106.43 45.4433Z" fill="black"/>
</svg>
