<svg xmlns="http://www.w3.org/2000/svg" id="Design" viewBox="0 0 241.41 35.97"><defs><style>.cls-1{fill:#0a1e5a;}.cls-2{fill:#fa002d;}.cls-3{fill:#7d8282;}</style></defs><title>lse-logo</title><path class="cls-1" d="M39.49,19.4c1.76,0,2.74.25,2.77,1.43a2.43,2.43,0,0,1-.91,1.77c-1.08.84-2,.93-7.1.93h-25L14.07,3.35H5.72c-.56,0-.77.16-.94.83L.2,23.09c-.86,3.76,1.08,7.19,5.41,7.19H17.08c2.91,0,6.8-3.17,8.37-6.1a3.93,3.93,0,0,0,.21-.4h0s0,0,0,0h0c-.25,1.06-1.13,4.78-1.27,5.39-.18.79.23,1.09.61,1.09H37.38c10.47,0,14.56-5,14.92-11,.2-3.36-1.93-5.53-7.94-5.53H39.74c-1.64,0-3.33-.54-3.33-1.88s1.83-2.49,4.31-2.49H52s1-3.94,1.18-4.76c.25-1-.06-1.33-.82-1.33H38.42c-8.07,0-11.69,5.39-11.69,9.24s3.11,6.82,11.11,6.82Z"></path><path class="cls-2" d="M44.9,0H67.3L55.78,5.92s.46-1.95.6-2.52-.05-1.08-.91-1.25Z"></path><path class="cls-3" d="M150.71,16.82a8.77,8.77,0,0,0-3.44-.73c-1.16,0-2.66.51-2.66,2.35,0,2.93,7.4,1.69,7.4,7.36,0,3.7-2.92,5.1-6.33,5.1a15,15,0,0,1-4.34-.65l.32-3.05a8.13,8.13,0,0,0,3.82,1c1.28,0,3-.65,3-2.18,0-3.22-7.4-1.88-7.4-7.47,0-3.78,2.93-5.16,5.9-5.16a12.77,12.77,0,0,1,4,.61Z"></path><path class="cls-3" d="M160.07,17.86a6.24,6.24,0,0,1,6.53,6.61,6.52,6.52,0,0,1-13,0A6.24,6.24,0,0,1,160.07,17.86Zm0,10.52c2.49,0,3.15-2.22,3.15-4.3,0-1.91-1-3.7-3.15-3.7S157,22.22,157,24.08C157,26.13,157.6,28.38,160.07,28.38Z"></path><path class="cls-3" d="M168.47,12.47h3.24V30.61h-3.24Z"></path><path class="cls-3" d="M186,30.61h-3.07V28.92h0a5.2,5.2,0,0,1-4.09,2c-2.95,0-4.23-2.08-4.23-4.89V18.15h3.24V24.8c0,1.53,0,3.58,2.1,3.58,2.35,0,2.86-2.54,2.86-4.13v-6.1H186Z"></path><path class="cls-3" d="M190,20.52h-2.4V18.15H190V15.66l3.24-1v3.53h2.88v2.37H193.2v5.81c0,1.06.29,2.05,1.53,2.05a3,3,0,0,0,1.47-.33l.1,2.56a8.7,8.7,0,0,1-2.4.29c-2.54,0-3.94-1.57-3.94-4Z"></path><path class="cls-3" d="M198.37,12.78h3.25v3.1h-3.25Zm0,5.37h3.25V30.61h-3.25Z"></path><path class="cls-3" d="M210.53,17.86a6.24,6.24,0,0,1,6.53,6.61,6.52,6.52,0,0,1-13,0A6.23,6.23,0,0,1,210.53,17.86Zm0,10.52c2.49,0,3.15-2.22,3.15-4.3,0-1.91-1-3.7-3.15-3.7s-3.12,1.84-3.12,3.7C207.41,26.13,208.07,28.38,210.53,28.38Z"></path><path class="cls-3" d="M219,18.15h3.07v1.69h.05a4.68,4.68,0,0,1,4.09-2c2.95,0,4.23,2.08,4.23,4.89v7.86H227.2V24c0-1.53,0-3.58-2.1-3.58-2.35,0-2.86,2.54-2.86,4.13v6.1H219Z"></path><path class="cls-3" d="M240.58,20.76a8.09,8.09,0,0,0-2.9-.53c-.87,0-1.91.32-1.91,1.38,0,2,5.64.73,5.64,5.23,0,2.9-2.59,4.06-5.23,4.06a14.8,14.8,0,0,1-3.68-.53l.2-2.66a7.07,7.07,0,0,0,3.19.82c.82,0,2.13-.31,2.13-1.52,0-2.45-5.64-.78-5.64-5.28,0-2.68,2.35-3.87,4.89-3.87a14.85,14.85,0,0,1,3.53.46Z"></path><path class="cls-3" d="M62.46,13.47H72.57v2.7H65.89V20.4H72v2.7H65.89v4.81h6.73v2.7H62.46Z"></path><path class="cls-3" d="M74.44,18.17h3.07v1.69h0a4.65,4.65,0,0,1,4.08-2c3,0,4.23,2.08,4.23,4.88v7.85H82.63V24c0-1.52,0-3.58-2.1-3.58-2.34,0-2.85,2.54-2.85,4.13v6.09H74.44Z"></path><path class="cls-3" d="M98.46,29.91a8.56,8.56,0,0,1-4.27,1c-4.11,0-6.5-2.37-6.5-6.45,0-3.6,1.91-6.57,5.77-6.57,4.61,0,5.92,3.16,5.92,7.51h-8.6a3.25,3.25,0,0,0,3.55,3.14,8.46,8.46,0,0,0,4.13-1.25Zm-2.17-6.74c-.1-1.57-.82-2.92-2.64-2.92s-2.73,1.25-2.87,2.92Z"></path><path class="cls-3" d="M100.91,18.17h2.87V21h0a3.83,3.83,0,0,1,3.41-3.12,3.44,3.44,0,0,1,1,.1v3.26a3.28,3.28,0,0,0-1.45-.27c-2.63,0-2.63,3.29-2.63,5.07v4.57h-3.24Z"></path><path class="cls-3" d="M121.3,18.17V29.4c0,3.38-1.35,6.57-6.57,6.57a11,11,0,0,1-4.3-.84l.27-2.76a9.16,9.16,0,0,0,3.62,1.09c3.57,0,3.74-2.68,3.74-4.83h0a4.47,4.47,0,0,1-3.87,2c-3.67,0-5.07-2.95-5.07-6.28,0-3,1.54-6.45,5.26-6.45a4.13,4.13,0,0,1,3.82,2h0V18.17Zm-3.24,6.09c0-2.13-.82-3.87-2.7-3.87-2.2,0-2.9,2-2.9,3.94,0,1.69.89,3.77,2.75,3.77C117.24,28.1,118.06,26.33,118.06,24.26Z"></path><path class="cls-3" d="M129.56,27.25h.05l3-9.08h3.28l-4.66,12.34c-1,2.76-1.79,5.46-5.17,5.46a8.45,8.45,0,0,1-2.29-.33l.21-2.4a4.65,4.65,0,0,0,1.67.22,2,2,0,0,0,2.1-2.22L123,18.17h3.58Z"></path></svg>