<svg id="Layer_1" data-name="Layer 1" xmlns="http://www.w3.org/2000/svg" viewBox="0 0 170 80"><defs><style>.cls-1{fill:#303c49;}.cls-2{fill:#e40045;}</style></defs><title>MAN_Logo_Lock</title><path class="cls-1" d="M14,29.22H9.19v10h5.15V35.25l3.08,3.08,3.08-3.08v3.94h5.15v-10H20.81l-3.4,3.4Zm23.29,6.21h-3l1.49-2.31Zm1.24-6.21H33.08l-6.49,10h5.32l.72-1.12H39l.72,1.12H45ZM35.81,3A32.76,32.76,0,0,0,3.24,39.19H6.67a29.75,29.75,0,0,1-.21-3.49,29.34,29.34,0,1,1,58.48,3.49h3.43A32.75,32.75,0,0,0,35.81,3M51.06,29.22H46v10h5.15v-4.5l6.08,4.5h5.15v-10H57.18v4.54Z"/><polygon class="cls-2" points="10.11 49.18 8.72 55.06 8.69 55.06 7.31 49.18 3.06 49.18 3.06 59.18 5.88 59.18 5.88 52.76 5.9 52.76 7.59 59.18 9.82 59.18 11.5 52.76 11.53 52.76 11.53 59.18 14.35 59.18 14.35 49.18 10.11 49.18"/><path class="cls-2" d="M19.78,49.18H22.7l3.53,10h-3.1l-.4-1.43H19.65l-.44,1.43h-3Zm2.35,6.44-.87-3.09h0l-.94,3.09Z"/><polygon class="cls-2" points="28.06 49.18 31.12 49.18 33.94 54.53 33.97 54.53 33.97 49.18 36.79 49.18 36.79 59.18 33.88 59.18 30.91 53.72 30.88 53.72 30.88 59.18 28.06 59.18 28.06 49.18"/><polygon class="cls-2" points="44.07 49.18 52.09 49.18 52.09 51.74 47.05 51.74 47.05 52.99 51.62 52.99 51.62 55.37 47.05 55.37 47.05 56.62 52.24 56.62 52.24 59.18 44.07 59.18 44.07 49.18"/><path class="cls-2" d="M54,51.91h2.67v.92h0A2.64,2.64,0,0,1,59,51.73a2.53,2.53,0,0,1,1.69.6,2.35,2.35,0,0,1,.71,1.86v5H58.74V55.37a2.65,2.65,0,0,0-.15-1c-.12-.26-.38-.39-.8-.39a1.17,1.17,0,0,0-.75.25,1.08,1.08,0,0,0-.29.42,2.05,2.05,0,0,0-.11.73v3.84H54Z"/><path class="cls-2" d="M65.19,56.17a1.78,1.78,0,0,0,.42,1,1.21,1.21,0,0,0,1,.41,1.66,1.66,0,0,0,.68-.14,1,1,0,0,0,.49-.38h2.6a3.19,3.19,0,0,1-1.44,1.74,4.53,4.53,0,0,1-2.26.56,4.2,4.2,0,0,1-2.86-1,3.51,3.51,0,0,1-1.16-2.8,3.88,3.88,0,0,1,1-2.74,3.72,3.72,0,0,1,2.75-1.1q4.13.05,4.09,4.44Zm2.75-1.44a1.28,1.28,0,0,0-.35-.87,1.21,1.21,0,0,0-.91-.35,1.34,1.34,0,0,0-1.48,1.22Z"/><path class="cls-2" d="M71.86,51.91h2.58v1.16h0a2.68,2.68,0,0,1,.8-1,2,2,0,0,1,1.18-.34,2.86,2.86,0,0,1,.79.11v2.45a2.63,2.63,0,0,0-.42-.14,3.78,3.78,0,0,0-.64,0q-1.62,0-1.63,2.19v2.87H71.86Z"/><path class="cls-2" d="M85.65,58.25a7.56,7.56,0,0,1-.09,1.13,2.86,2.86,0,0,1-.49,1.13,2.47,2.47,0,0,1-1.1.83,4.81,4.81,0,0,1-2,.37,5.33,5.33,0,0,1-2.36-.49,2.35,2.35,0,0,1-1.32-1.93H81a2.73,2.73,0,0,0,.15.25,1.38,1.38,0,0,0,.34.35.75.75,0,0,0,.45.18.92.92,0,0,0,.54-.19,1.4,1.4,0,0,0,.32-.43A3.34,3.34,0,0,0,83,58.41v-.67h0a2.27,2.27,0,0,1-1.94,1,2.74,2.74,0,0,1-2.34-1.05,4,4,0,0,1-.77-2.5,3.71,3.71,0,0,1,.81-2.45,2.88,2.88,0,0,1,2.34-1,2.79,2.79,0,0,1,1.15.23,1.58,1.58,0,0,1,.75.83h0v-.88h2.68Zm-5.09-3.06a2.93,2.93,0,0,0,.07.62,1.73,1.73,0,0,0,.2.58,1.06,1.06,0,0,0,1,.59,1,1,0,0,0,.64-.18.85.85,0,0,0,.35-.43A3.19,3.19,0,0,0,83,55.18a1.61,1.61,0,0,0-.31-1,1.15,1.15,0,0,0-.95-.41,1.11,1.11,0,0,0-.92.42,1.69,1.69,0,0,0-.31,1"/><path class="cls-2" d="M92,58.62c-.1.33-.21.67-.35,1a4.68,4.68,0,0,1-.53,1,2.2,2.2,0,0,1-1.29.79,8.49,8.49,0,0,1-1.54.11H87.07V59.32h1.1a1.21,1.21,0,0,0,.38-.05.47.47,0,0,0,.2-.19.84.84,0,0,0,.06-.36,2.69,2.69,0,0,0-.16-.64q-.17-.47-.39-1.06-.48-1.28-.68-1.74l-1.21-3.35h2.88l1.13,4.17h0l1.15-4.17h2.78Z"/><path class="cls-2" d="M102.21,55.82a1.85,1.85,0,0,0,.11.66,1,1,0,0,0,.64.58,2.67,2.67,0,0,0,.88.15,2,2,0,0,0,.86-.18.75.75,0,0,0,.45-.73.65.65,0,0,0-.42-.6,12.16,12.16,0,0,0-1.74-.55q-.6-.16-1.18-.36a4.84,4.84,0,0,1-1.09-.51,2.44,2.44,0,0,1-.8-.82,2.11,2.11,0,0,1-.32-1.22,2.87,2.87,0,0,1,1.22-2.53,4.67,4.67,0,0,1,2.69-.77,5.22,5.22,0,0,1,2.8.7,3.08,3.08,0,0,1,1.25,2.56h-2.83a.76.76,0,0,0-.35-.8,1.65,1.65,0,0,0-.88-.25,2.07,2.07,0,0,0-.68.12.74.74,0,0,0-.27.2.51.51,0,0,0-.12.35.55.55,0,0,0,.29.42,2.33,2.33,0,0,0,.64.32q.83.25,1.89.52a8.8,8.8,0,0,1,1.08.35,3.5,3.5,0,0,1,.92.53,2.48,2.48,0,0,1,.67.81,2.92,2.92,0,0,1,.23,1.19,2.88,2.88,0,0,1-1.44,2.69,6.17,6.17,0,0,1-3.12.76,6.54,6.54,0,0,1-1.14-.13,5.26,5.26,0,0,1-1.44-.49,3.31,3.31,0,0,1-1.22-1.09,3.35,3.35,0,0,1-.55-1.89Z"/><path class="cls-2" d="M116.83,55.55a4,4,0,0,1-.95,2.66,4.38,4.38,0,0,1-5.94,0,4.19,4.19,0,0,1,0-5.33,4.43,4.43,0,0,1,5.94,0,4,4,0,0,1,.95,2.67m-2.68,0c0-.2,0-.41,0-.62a1.71,1.71,0,0,0-.18-.58,1.13,1.13,0,0,0-.36-.45,1.29,1.29,0,0,0-.67-.16,1.11,1.11,0,0,0-.63.16,1.05,1.05,0,0,0-.39.45,2.94,2.94,0,0,0-.22,1.2,3.25,3.25,0,0,0,.06.59,2.32,2.32,0,0,0,.16.59,1,1,0,0,0,.39.44,1,1,0,0,0,.63.19,1.13,1.13,0,0,0,.67-.19,1.06,1.06,0,0,0,.36-.44,3.08,3.08,0,0,0,.21-1.18"/><rect class="cls-2" x="118.26" y="49.18" width="2.68" height="10"/><path class="cls-2" d="M130.1,59.18h-2.64v-.92h0a2.63,2.63,0,0,1-2.34,1.11,2.54,2.54,0,0,1-1.7-.61,2.32,2.32,0,0,1-.76-1.85v-5h2.68v3.82a2.42,2.42,0,0,0,.16,1,.76.76,0,0,0,.79.4,1.2,1.2,0,0,0,.78-.28,1,1,0,0,0,.29-.43,2.31,2.31,0,0,0,.09-.69V51.91h2.68Z"/><path class="cls-2" d="M135,51.91h1.44v1.71H135v2.55a1.11,1.11,0,0,0,.17.73.77.77,0,0,0,.66.24,4.58,4.58,0,0,0,.61,0v2.09l-1.72.08a5.23,5.23,0,0,1-.84-.07,2.64,2.64,0,0,1-.77-.28,1.54,1.54,0,0,1-.56-.65,2.47,2.47,0,0,1-.23-1.16V53.62h-1.2V51.91h1.2V49.7H135Z"/><path class="cls-2" d="M140.49,51.12h-2.68V49.18h2.68Zm-2.68.79h2.68v7.27h-2.68Z"/><path class="cls-2" d="M149.62,55.55a4,4,0,0,1-.95,2.66,4.38,4.38,0,0,1-5.94,0,4.2,4.2,0,0,1,0-5.33,4.43,4.43,0,0,1,5.94,0,3.94,3.94,0,0,1,.95,2.67m-2.68,0c0-.2,0-.41,0-.62a1.68,1.68,0,0,0-.18-.58,1.13,1.13,0,0,0-.36-.45,1.29,1.29,0,0,0-.67-.16,1.12,1.12,0,0,0-.63.16,1.06,1.06,0,0,0-.39.45,2.92,2.92,0,0,0-.22,1.2,3.15,3.15,0,0,0,.06.59,2.27,2.27,0,0,0,.16.59,1,1,0,0,0,.39.44,1,1,0,0,0,.63.19,1.13,1.13,0,0,0,.67-.19,1.06,1.06,0,0,0,.36-.44,3.08,3.08,0,0,0,.21-1.18"/><path class="cls-2" d="M151,51.91h2.67v.92h0a2.64,2.64,0,0,1,2.36-1.1,2.54,2.54,0,0,1,1.7.6,2.36,2.36,0,0,1,.71,1.86v5h-2.68V55.37a2.63,2.63,0,0,0-.15-1c-.11-.26-.38-.39-.8-.39a1.17,1.17,0,0,0-.75.25,1.06,1.06,0,0,0-.29.42,2,2,0,0,0-.11.73v3.84H151Z"/><path class="cls-2" d="M164.32,54a.67.67,0,0,0-.31-.55,1.06,1.06,0,0,0-.66-.22,1.78,1.78,0,0,0-.6.1.45.45,0,0,0-.3.47.26.26,0,0,0,.11.22.9.9,0,0,0,.22.16,2.87,2.87,0,0,0,.48.11l.6.12a10.12,10.12,0,0,1,1.41.34,2.72,2.72,0,0,1,1.18.67,1.56,1.56,0,0,1,.38.56,2.42,2.42,0,0,1,.12.8,2.18,2.18,0,0,1-.32,1.23,2.33,2.33,0,0,1-.84.8,5.48,5.48,0,0,1-2.49.53,5,5,0,0,1-2.41-.59,2.27,2.27,0,0,1-1.17-2h2.64a.91.91,0,0,0,.33.64,1.08,1.08,0,0,0,.75.21,1.64,1.64,0,0,0,.61-.13.46.46,0,0,0,.32-.43.48.48,0,0,0-.27-.46,5.32,5.32,0,0,0-1.26-.31,5.1,5.1,0,0,1-2.27-.83,1.75,1.75,0,0,1-.7-1.46,1.89,1.89,0,0,1,.33-1.14,2,2,0,0,1,.83-.71,3.63,3.63,0,0,1,1.11-.36,6.74,6.74,0,0,1,1.12-.1,5.63,5.63,0,0,1,2.31.43,2,2,0,0,1,.83.7,2.16,2.16,0,0,1,.35,1.17Z"/><polygon class="cls-1" points="10 64.2 10 65.7 4.83 65.7 4.83 68.41 9.37 68.41 9.37 69.83 4.83 69.83 4.83 74.21 3.07 74.21 3.07 64.2 10 64.2"/><path class="cls-1" d="M17.39,67v7.25h-1.5V73.13a2.84,2.84,0,0,1-2.4,1.28,2.42,2.42,0,0,1-2-.83,3.12,3.12,0,0,1-.49-2V67h1.6v4.14a3.15,3.15,0,0,0,.21,1.44,1.26,1.26,0,0,0,1.16.53,1.64,1.64,0,0,0,1.55-.93,3.86,3.86,0,0,0,.24-1.63V67Z"/><path class="cls-1" d="M22.87,67v1.17H21.42v3.82a1.84,1.84,0,0,0,.11.82c.11.16.35.25.72.25a3.59,3.59,0,0,0,.63-.05v1.27a10.39,10.39,0,0,1-1.09.06q-1.32,0-1.73-.66a1.47,1.47,0,0,1-.2-.61q0-.37,0-1.44V68.12H18.6V67h1.21V64.78h1.6V67Z"/><path class="cls-1" d="M30.56,67v7.25h-1.5V73.13a2.84,2.84,0,0,1-2.4,1.28,2.42,2.42,0,0,1-2-.83,3.12,3.12,0,0,1-.49-2V67h1.6v4.14A3.15,3.15,0,0,0,26,72.53a1.26,1.26,0,0,0,1.16.53,1.64,1.64,0,0,0,1.55-.93A3.86,3.86,0,0,0,29,70.5V67Z"/><path class="cls-1" d="M36.72,66.8v1.54l-.57,0a1.93,1.93,0,0,0-1.93,1.43,6.42,6.42,0,0,0-.14,1.57v2.91h-1.6V67H34V68.4a2.62,2.62,0,0,1,2.44-1.61h.31"/><path class="cls-1" d="M44.27,71.93a3.4,3.4,0,0,1-.49,1.1A3.17,3.17,0,0,1,41,74.4a3.35,3.35,0,0,1-2.65-1.11,3.84,3.84,0,0,1-.92-2.63,4.09,4.09,0,0,1,.94-2.75,3.23,3.23,0,0,1,2.57-1.16,3.16,3.16,0,0,1,2.6,1.2,3.5,3.5,0,0,1,.64,1.23,7.07,7.07,0,0,1,.2,1.78H39a3.23,3.23,0,0,0,.17,1A1.8,1.8,0,0,0,41,73.22a1.73,1.73,0,0,0,1.73-1.29Zm-1.51-2a2.5,2.5,0,0,0-.32-1.09,1.81,1.81,0,0,0-2.8-.37A2.51,2.51,0,0,0,39,69.9Z"/><path class="cls-1" d="M51.36,65.72h-1.6V64.2h1.6Zm0,8.48h-1.6V67h1.6Z"/><path class="cls-1" d="M54.8,67V68a3.46,3.46,0,0,1,.61-.68,2.86,2.86,0,0,1,1.81-.59,2.64,2.64,0,0,1,1.59.48,1.82,1.82,0,0,1,.67.86,4.52,4.52,0,0,1,.19,1.48v4.63h-1.6V70a3.81,3.81,0,0,0-.13-1.18,1,1,0,0,0-.45-.52,1.62,1.62,0,0,0-.8-.19,1.81,1.81,0,0,0-.94.25,1.51,1.51,0,0,0-.62.68,3.92,3.92,0,0,0-.23,1.55v3.63H53.3V67Z"/><path class="cls-1" d="M69,67v1.17H67.55v3.82a1.84,1.84,0,0,0,.11.82c.11.16.35.25.72.25A3.57,3.57,0,0,0,69,73v1.27a10.39,10.39,0,0,1-1.09.06q-1.32,0-1.73-.66A1.47,1.47,0,0,1,66,73q0-.37,0-1.44V68.12H64.74V67H66V64.78h1.6V67Z"/><path class="cls-1" d="M72,64.2v2.9q0,.1,0,.88A2.91,2.91,0,0,1,73,67a2.79,2.79,0,0,1,1.31-.29,2.29,2.29,0,0,1,2.16,1.06,3.51,3.51,0,0,1,.33,1.74v4.64h-1.6v-4.4a2.25,2.25,0,0,0-.23-1.2,1.35,1.35,0,0,0-1.18-.51,1.76,1.76,0,0,0-.94.25,1.6,1.6,0,0,0-.62.7,2.12,2.12,0,0,0-.17.61,9.48,9.48,0,0,0,0,1.07v3.47H70.4v-10Z"/><path class="cls-1" d="M85.17,71.93a3.38,3.38,0,0,1-.49,1.1,3.17,3.17,0,0,1-2.8,1.37,3.35,3.35,0,0,1-2.65-1.11,3.84,3.84,0,0,1-.92-2.63,4.09,4.09,0,0,1,.94-2.75,3.23,3.23,0,0,1,2.57-1.16,3.16,3.16,0,0,1,2.6,1.2,3.53,3.53,0,0,1,.64,1.23,7.13,7.13,0,0,1,.2,1.78H79.91a3.19,3.19,0,0,0,.17,1,1.8,1.8,0,0,0,1.83,1.26,1.74,1.74,0,0,0,1.73-1.29Zm-1.51-2a2.52,2.52,0,0,0-.32-1.09,1.81,1.81,0,0,0-2.8-.37,2.5,2.5,0,0,0-.61,1.45Z"/><path class="cls-1" d="M92.11,67v1a3.46,3.46,0,0,1,.79-.79,2.7,2.7,0,0,1,1.51-.42,2.05,2.05,0,0,1,2,1.23,2.77,2.77,0,0,1,2.35-1.23,2.59,2.59,0,0,1,1.46.41,1.88,1.88,0,0,1,.7.82,3.27,3.27,0,0,1,.21,1.28v4.94h-1.6V69.76a2.71,2.71,0,0,0-.14-1.07,1.15,1.15,0,0,0-1.14-.6,1.43,1.43,0,0,0-1.44.88,3.67,3.67,0,0,0-.16,1.34v3.89h-1.6V69.67a1.89,1.89,0,0,0-.27-1.2,1.16,1.16,0,0,0-.92-.37,1.64,1.64,0,0,0-.88.24,1.48,1.48,0,0,0-.59.67,3.33,3.33,0,0,0-.19,1.31v3.89h-1.6V67Z"/><path class="cls-1" d="M103,69.2a2.52,2.52,0,0,1,.69-1.63,3.4,3.4,0,0,1,2.48-.81,5,5,0,0,1,1.64.25,2.18,2.18,0,0,1,1,.69,2.28,2.28,0,0,1,.34,1.36c0,.14,0,.58,0,1.32l0,1.74a3.3,3.3,0,0,0,.06.88c0,.1.16.16.36.16l.34,0v1.12a4.33,4.33,0,0,1-1,.16q-1,0-1.18-.87a3.73,3.73,0,0,1-2.55.88,2.69,2.69,0,0,1-1.64-.47,2,2,0,0,1-.8-1.7,1.87,1.87,0,0,1,.73-1.59,2.49,2.49,0,0,1,.82-.41,14.56,14.56,0,0,1,1.69-.27,5.64,5.64,0,0,0,1.43-.29q.27-.14.26-.63a1,1,0,0,0-.36-.85,1.93,1.93,0,0,0-1.14-.27,1.82,1.82,0,0,0-1.14.29,1.47,1.47,0,0,0-.47,1Zm4.6,1.38a2.28,2.28,0,0,1-.55.22c-.16,0-.54.1-1.14.18a2.44,2.44,0,0,0-1.29.44,1,1,0,0,0-.29.77,1,1,0,0,0,.35.8,1.47,1.47,0,0,0,1,.28,2.73,2.73,0,0,0,1.09-.21,1.5,1.5,0,0,0,.71-.55,2.24,2.24,0,0,0,.17-1.07Z"/><path class="cls-1" d="M117.66,67l-2.79,2.66,3,4.59h-2l-2.2-3.51-1,.9v2.61h-1.6v-10h1.6v5.71q.35-.41.49-.55l2.41-2.4Z"/><path class="cls-1" d="M120.68,65.72h-1.6V64.2h1.6Zm0,8.48h-1.6V67h1.6Z"/><path class="cls-1" d="M124.13,67V68a3.46,3.46,0,0,1,.61-.68,2.85,2.85,0,0,1,1.81-.59,2.64,2.64,0,0,1,1.59.48,1.82,1.82,0,0,1,.67.86,4.49,4.49,0,0,1,.19,1.48v4.63h-1.6V70a3.82,3.82,0,0,0-.13-1.18,1,1,0,0,0-.45-.52,1.62,1.62,0,0,0-.8-.19,1.8,1.8,0,0,0-.94.25,1.52,1.52,0,0,0-.62.68,4,4,0,0,0-.23,1.55v3.63h-1.6V67Z"/><path class="cls-1" d="M137.57,66.94v6.42a7.58,7.58,0,0,1-.1,1.41,2.79,2.79,0,0,1-.37.93,3.27,3.27,0,0,1-3,1.33q-3,0-3.26-2.21h1.61q.22,1.08,1.69,1.08a1.75,1.75,0,0,0,1.55-.63,2.67,2.67,0,0,0,.35-1.51v-.85a2.51,2.51,0,0,1-2.3,1.22,2.91,2.91,0,0,1-2.29-1,3.85,3.85,0,0,1-.86-2.64,4,4,0,0,1,.89-2.74,3,3,0,0,1,2.37-1,2.65,2.65,0,0,1,1.28.29,2.72,2.72,0,0,1,1,.92v-1ZM134.06,68a1.64,1.64,0,0,0-1.44.76,3,3,0,0,0-.42,1.65,2.54,2.54,0,0,0,.65,1.93,1.74,1.74,0,0,0,1.25.49,1.68,1.68,0,0,0,1.51-.79,3,3,0,0,0,.42-1.68,2.49,2.49,0,0,0-.64-1.86,1.81,1.81,0,0,0-1.33-.49"/></svg>