<svg xmlns="http://www.w3.org/2000/svg" id="Layer_2" width="124.79" height="165.7" viewBox="0 0 124.79 165.7"><g id="Layer_1-2"><path d="m29.08,133.5h-7.72v3.26h3.26l-7.12,20.77h-.15l-6.23-18.7c-.15-.3-.3-.89-.3-1.19,0-.59.45-.89,1.19-.89h2.08v-3.26H0v3.26h.89c1.19,0,1.48.45,1.78,1.19l9.64,27.15h6.97l10.68-30.27c.3-.59-.15-1.34-.89-1.34" fill="#fff"></path><path d="m40.66,160.65v-16.77c0-.89-.45-1.19-1.19-1.19h-8.61v3.12h1.34c.89,0,1.19.45,1.19,1.19v13.65c0,.89-.45,1.19-1.19,1.19h-1.34v3.26h12.46v-3.26h-1.34c-.89,0-1.34-.3-1.34-1.19" fill="#fff"></path><path d="m55.79,146.41h0l-.15-2.52c0-.89-.45-1.19-1.19-1.19h-8.61v3.12h1.34c.89,0,1.19.45,1.19,1.19v13.65c0,.89-.45,1.19-1.19,1.19h-1.34v3.26h13.21v-3.26h-2.08c-.89,0-1.19-.45-1.19-1.19v-10.98c1.04-1.34,2.97-2.08,5.34-2.08.74,0,1.34,0,1.93.15h.45v-5.49c-.45-.15-1.04-.15-1.63-.15-3.12,0-5.19,2.08-6.08,4.3" fill="#fff"></path><path d="m74.93,160.65v-16.77c0-.89-.45-1.19-1.19-1.19h-8.61v3.12h1.34c.89,0,1.19.45,1.19,1.19v13.65c0,.89-.45,1.19-1.19,1.19h-1.34v3.26h12.46v-3.26h-1.34c-.89,0-1.34-.3-1.34-1.19" fill="#fff"></path><path d="m102.09,160.65v-28.93c0-.89-.45-1.19-1.19-1.19h-8.61v3.26h1.34c.74,0,1.19.45,1.19,1.19v7.72c-.89-.3-1.93-.45-3.26-.45-7.27,0-12.61,4.75-12.61,12.32,0,7.12,3.71,11.13,9.2,11.13,3.56,0,5.49-1.63,6.53-3.12h.15v1.34c0,.89.45,1.19,1.19,1.19h8.61v-3.26h-1.34c-.74,0-1.19-.3-1.19-1.19m-7.27-1.19c-.45.74-1.78,1.63-3.41,1.63-2.82,0-4.75-2.23-4.75-7.27,0-5.49,2.23-8.16,6.53-8.16.74,0,1.34.15,1.78.3v13.5h-.15Z" fill="#fff"></path><path d="m117.97,161.84c-.89,0-1.19-.45-1.19-1.19v-16.77c0-.89-.45-1.19-1.19-1.19h-8.61v3.12h1.34c.89,0,1.19.45,1.19,1.19v13.65c0,.89-.45,1.19-1.19,1.19h-1.34v3.26h12.46v-3.26h-1.48Z" fill="#fff"></path><path d="m39.62,133.5h-6.08v3.26h7.27v-2.08c-.15-.74-.59-1.19-1.19-1.19" fill="#fff"></path><path d="m115.74,130.38h-6.08v6.23h7.27v-5.19c-.15-.45-.59-1.04-1.19-1.04" fill="#fff"></path><path d="m73.9,131.87h-6.08v4.75h7.27v-3.71c-.15-.45-.59-1.04-1.19-1.04" fill="#fff"></path><path d="m119.75,129.64h-.89v-.45h2.23v.45h-.89v2.37h-.45v-2.37h0Zm1.78-.3h.74l.74,1.78c0,.15.15.3.15.45h0c0-.15.15-.3.15-.45l.74-1.78h.74v2.82h-.45v-2.37h0c0,.15-.15.3-.15.45l-.74,1.93h-.45l-.74-1.93c0-.15-.15-.3-.15-.45h0v2.37h-.45v-2.82h-.15Z" fill="#fff"></path><path id="Path_5853" d="m87.16,15.84v-7.92h-6.86v27.66h6.86v-7.92l13.72.19-27.37,47.25-27.41-47.41,20.49.05v15.84h6.86V0h-6.86v15.84l-63.93.02c-1.46,0-2.65,1.19-2.65,2.65,0,.47.12.92.36,1.33l57.23,98.89c.73,1.27,2.35,1.7,3.62.97.4-.23.74-.57.97-.97L119.22,19.83c.73-1.27.3-2.89-.97-3.62-.4-.23-.86-.35-1.32-.35l-29.77-.02Z" fill="#69be28"></path></g></svg>